<?xml version="1.0" encoding="UTF-8"?>
<svg version="1.1" xmlns="http://www.w3.org/2000/svg" width="1024" height="1024">
<path d="M0 0 C12.2357045 9.79226578 21.12439917 21.28467254 24 37 C25.70245365 53.90978547 22.63992532 70.1370282 11.859375 83.69140625 C9.64772939 86.21523994 7.37044133 88.62535576 5 91 C4.45859375 91.55300781 3.9171875 92.10601562 3.359375 92.67578125 C0.55841995 95.29990833 -1.95843615 96.9807125 -5.4765625 98.61328125 C-12.24291282 101.46162981 -12.24291282 101.46162981 -16.82861328 106.82470703 C-17.94711565 111.18402531 -18.08169124 115.51865186 -18 120 C-17.24074219 120.21527344 -16.48148438 120.43054688 -15.69921875 120.65234375 C-10.51947674 122.53936697 -5.71872284 125.06013243 -0.8125 127.5625 C7.04929761 131.53130584 14.92337383 135.46384379 22.875 139.25 C23.67059326 139.6322876 24.46618652 140.0145752 25.28588867 140.40844727 C28.97980112 142.31799476 28.97980112 142.31799476 33 143 C33 143.66 33 144.32 33 145 C33.78503906 145.22816406 34.57007813 145.45632813 35.37890625 145.69140625 C40.1065699 147.39989312 44.46637758 149.65153043 48.9375 151.9375 C56.48205385 155.75197241 64.05129809 159.49742442 71.6875 163.125 C82.00478727 168.03097537 92.28716404 173.00693886 102.5625 178 C103.33524261 178.37529846 104.10798523 178.75059692 104.90414429 179.13726807 C107.12512704 180.2160421 109.34583118 181.29538707 111.56640625 182.375 C112.22800751 182.69644989 112.88960876 183.01789978 113.57125854 183.34909058 C116.49525647 184.77184393 119.39986346 186.21067082 122.27709961 187.7265625 C124.9519218 189.21181837 124.9519218 189.21181837 128 189 C128 189.66 128 190.32 128 191 C128.87164795 191.27690674 129.7432959 191.55381348 130.64135742 191.83911133 C136.0554408 193.71044712 141.14454778 196.22901834 146.3125 198.6875 C147.40240234 199.19216797 148.49230469 199.69683594 149.61523438 200.21679688 C162.61897475 206.40197946 171.71267229 213.39290662 177 227 C180.34333774 237.03001323 177.5393353 246.89346061 173.0078125 255.9921875 C168.5596904 263.29749753 160.00077143 267.71201147 152 270 C148.89386487 270.25299966 148.89386487 270.25299966 145.51121902 270.25726891 C144.21658336 270.2637178 142.92194769 270.27016669 141.58808064 270.276811 C140.15843113 270.27386896 138.72878201 270.27073355 137.2991333 270.26742554 C135.77490347 270.27116302 134.25067556 270.27576493 132.72645068 270.28115618 C128.5407086 270.29338958 124.35504642 270.29312531 120.16929054 270.29076743 C115.65381259 270.29035935 111.13836029 270.30139762 106.62289429 270.31088257 C97.7770324 270.32749561 88.93119716 270.33299226 80.08532098 270.33410732 C72.89446987 270.33505769 65.70362756 270.33916743 58.51277924 270.34550858 C38.12399478 270.36312212 17.73523139 270.37234731 -2.65356073 270.37084763 C-3.75272944 270.37076772 -4.85189815 270.3706878 -5.984375 270.37060547 C-7.08488635 270.37052371 -8.1853977 270.37044195 -9.31925789 270.37035771 C-27.15330357 270.36954486 -44.98726479 270.38868184 -62.82128605 270.4168822 C-81.13451128 270.44561172 -99.44769531 270.45942245 -117.76094365 270.45769465 C-128.04186523 270.45703075 -138.32269827 270.46252288 -148.60359955 270.48405075 C-157.35740173 270.50226346 -166.11107524 270.50660915 -174.86488816 270.4930319 C-179.32994633 270.48650261 -183.79475765 270.48638361 -188.25979233 270.5037384 C-192.35089552 270.51947602 -196.44155627 270.51659862 -200.53264871 270.49917014 C-202.00908633 270.49610174 -203.48555703 270.49972664 -204.96195564 270.51089029 C-217.77091269 270.60129463 -226.42014049 268.44224822 -235.796875 259.5078125 C-242.18369867 252.2377047 -244.3521062 244.18424716 -244.2109375 234.68359375 C-243.56057128 226.40949013 -240.55018222 220.08606188 -235 214 C-234.47019531 213.41605469 -233.94039063 212.83210937 -233.39453125 212.23046875 C-227.06265157 206.03836567 -218.90204783 202.72457244 -211 199 C-208.37688417 197.74569058 -205.75608828 196.48660797 -203.13525391 195.22753906 C-201.1228015 194.2614819 -199.10941249 193.29737403 -197.09521484 192.33496094 C-189.98278289 188.93187351 -182.89210725 185.4864993 -175.8125 182.015625 C-174.91169708 181.57407074 -174.01089417 181.13251648 -173.08279419 180.67758179 C-172.16875824 180.22952179 -171.25472229 179.78146179 -170.31298828 179.31982422 C-154.91495085 171.77179294 -139.50208907 164.28850128 -123.91943359 157.12841797 C-117.36836498 154.11522623 -110.88207708 151.01041338 -104.4543457 147.74291992 C-99.8444005 145.40281149 -95.18550057 143.18456323 -90.5 141 C-83.01425928 137.5049007 -75.61880889 133.85172736 -68.24365234 130.12988281 C-63.8343715 127.90940928 -59.4163313 125.70640709 -55 123.5 C-53.27080209 122.63547916 -51.54163269 121.77090128 -49.8125 120.90625 C-48.54166667 120.27083333 -47.27083333 119.63541667 -46 119 C-45.97421875 117.90042969 -45.9484375 116.80085938 -45.921875 115.66796875 C-45.54729961 104.6833277 -44.62124114 93.62403602 -37 85 C-32.84491808 82.07722375 -28.37090171 79.72850681 -23.890625 77.34765625 C-17.30988753 73.73807264 -12.73760059 70.57174144 -9 64 C-8.59007812 63.34644531 -8.18015625 62.69289063 -7.7578125 62.01953125 C-3.69676958 54.55561443 -3.658503 45.45330436 -5.66015625 37.31640625 C-9.15886652 28.57720354 -15.16558561 22.87085023 -23.5703125 18.91015625 C-32.55002787 15.5463722 -41.20950363 16.58830386 -50 20 C-51.69403834 20.95289657 -53.37501495 21.93360356 -55 23 C-55.66 23 -56.32 23 -57 23 C-57 23.66 -57 24.32 -57 25 C-58.11375 26.051875 -58.11375 26.051875 -59.25 27.125 C-64.17147159 32.27017485 -65.99983236 37.1064323 -67 44.125 C-67.87558759 50.16274748 -69.47989351 53.83990872 -74.1875 57.875 C-78.20465866 59.48186346 -81.73347745 59.66970107 -86 59 C-89.60758907 57.26301267 -91.48498146 55.68669139 -93.875 52.5 C-97.36097539 41.65474323 -94.30657898 30.71955779 -89.421875 20.79296875 C-81.1928683 6.05859865 -69.20173138 -3.93521005 -53 -9 C-52.34644531 -9.22300781 -51.69289063 -9.44601563 -51.01953125 -9.67578125 C-33.91816225 -14.53825948 -14.11777978 -10.57035804 0 0 Z M-38.734375 146.23828125 C-40.16438843 146.96446655 -40.16438843 146.96446655 -41.62329102 147.70532227 C-42.65510498 148.23569092 -43.68691895 148.76605957 -44.75 149.3125 C-46.96141379 150.43392161 -49.17367232 151.55367875 -51.38671875 152.671875 C-52.50481934 153.23712891 -53.62291992 153.80238281 -54.77490234 154.38476562 C-59.3420685 156.6721518 -63.94687279 158.87495845 -68.5625 161.0625 C-75.74984865 164.47392119 -82.91574812 167.92634234 -90.0625 171.421875 C-90.86856186 171.81608139 -91.67462372 172.21028778 -92.50511169 172.61643982 C-94.17462601 173.4329947 -95.84413583 174.24955876 -97.51364136 175.06613159 C-111.13614098 181.72740848 -124.79445293 188.28328581 -138.55932617 194.64501953 C-149.91795693 199.90870738 -161.15633989 205.41326221 -172.39682007 210.92379761 C-183.6131925 216.42035663 -194.86025171 221.80447465 -206.27490234 226.87963867 C-207.14969238 227.27127197 -208.02448242 227.66290527 -208.92578125 228.06640625 C-210.04593628 228.5605603 -210.04593628 228.5605603 -211.1887207 229.06469727 C-213.17861675 229.97604758 -213.17861675 229.97604758 -215 232 C-215.3176246 233.91006306 -215.3176246 233.91006306 -215.25 236 C-215.25515625 236.70125 -215.2603125 237.4025 -215.265625 238.125 C-215.15705515 240.2435669 -215.15705515 240.2435669 -213 242 C-209.68842722 243.1672387 -206.4930967 243.12633587 -203.00605011 243.12863445 C-201.77091407 243.1318589 -200.53577804 243.13508335 -199.26321363 243.1384055 C-197.89036009 243.13693433 -196.51750665 243.13536661 -195.14465332 243.13371277 C-193.68799674 243.13558054 -192.23134066 243.13788111 -190.77468538 243.14057809 C-186.76668396 243.14670654 -182.75870337 243.14656128 -178.75069833 243.14538372 C-174.43026675 243.14517998 -170.10984191 243.15069584 -165.78941345 243.15544128 C-157.32362509 243.16375371 -148.85784368 243.16649638 -140.39205158 243.16705366 C-133.51336561 243.16752846 -126.63468194 243.16958142 -119.7559967 243.17275429 C-100.26574326 243.18156184 -80.77549532 243.18617341 -61.28523988 243.18542381 C-60.23414294 243.18538386 -59.18304601 243.1853439 -58.10009766 243.18530273 C-57.04772189 243.18526185 -55.99534612 243.18522097 -54.91108018 243.18517885 C-37.84563069 243.18477217 -20.78020324 243.19434705 -3.71476012 243.2084411 C13.79605956 243.22278924 31.30686848 243.22971217 48.81769419 243.22884732 C58.65353228 243.22851485 68.48934725 243.23128393 78.32518005 243.24202538 C86.69745817 243.25110977 95.06970268 243.2533226 103.44198358 243.24651595 C107.71584281 243.24324052 111.9896375 243.24323079 116.26349068 243.2518692 C120.17290689 243.25968998 124.0822069 243.25834844 127.99162012 243.24958507 C129.40879032 243.24804029 130.825969 243.24990274 132.24312919 243.25544515 C134.16409126 243.26246261 136.08508854 243.25604131 138.00605011 243.24888897 C139.60901467 243.24921502 139.60901467 243.24921502 141.24436235 243.24954766 C144.05785292 242.9947609 145.69767058 242.62521777 148 241 C149.17761741 237.67583445 149.17761741 237.67583445 149 234 C146.3745761 229.94833858 143.84544976 228.08962622 139.46875 226.16015625 C138.36233154 225.66177246 137.25591309 225.16338867 136.1159668 224.64990234 C134.92269775 224.12605957 133.72942871 223.6022168 132.5 223.0625 C129.95096417 221.91775914 127.40694325 220.7620933 124.86328125 219.60546875 C124.21148392 219.3102533 123.55968658 219.01503784 122.88813782 218.71087646 C116.06545254 215.60596956 109.37631907 212.25786174 102.6875 208.875 C88.83875933 201.89048469 74.87027703 195.18497232 60.84375 188.56640625 C59.20826676 187.79441185 57.57284844 187.02227991 55.9375 186.25 C54.76030396 185.69421265 54.76030396 185.69421265 53.55932617 185.12719727 C49.09493853 183.01288681 44.66114241 180.84901684 40.25 178.625 C33.6770928 175.31237441 27.04161579 172.14226234 20.39257812 168.9855957 C13.40394732 165.65615923 6.4492254 162.26245289 -0.49609375 158.84375 C-2.36544205 157.92530012 -4.23482706 157.00692497 -6.10424805 156.08862305 C-8.92562085 154.70257805 -11.74591136 153.31452376 -14.56314087 151.92007446 C-17.22185011 150.60425574 -19.88400061 149.29564537 -22.546875 147.98828125 C-23.35527328 147.58569092 -24.16367157 147.18310059 -24.99656677 146.76831055 C-25.74374466 146.40302246 -26.49092255 146.03773438 -27.26074219 145.66137695 C-28.23923126 145.17819756 -28.23923126 145.17819756 -29.23748779 144.68525696 C-33.02635245 143.21216312 -35.33810736 144.49569876 -38.734375 146.23828125 Z " fill="#794CDF" transform="translate(546,227)"/>
<path d="M0 0 C2.10461439 -0.00219358 4.20871016 -0.02039124 6.31323242 -0.03930664 C7.65242334 -0.04223962 8.99161674 -0.04422505 10.33081055 -0.04516602 C11.54647705 -0.0492749 12.76214355 -0.05338379 14.01464844 -0.05761719 C17.0456543 0.18530273 17.0456543 0.18530273 20.0456543 2.18530273 C20.34194345 5.21566316 20.44089382 8.041896 20.41314697 11.07484436 C20.41805023 12.47292419 20.41805023 12.47292419 20.42305255 13.89924806 C20.4303714 17.04171845 20.41613975 20.18372951 20.40209961 23.32617188 C20.40288994 25.57112203 20.40498551 27.81607205 20.40829468 30.0610199 C20.41344345 36.17240877 20.39986424 42.28363021 20.38276768 48.39499211 C20.3677731 54.77670599 20.3689067 61.15841733 20.36810303 67.54014587 C20.3644065 78.25791861 20.34950995 88.97561373 20.3269043 99.69335938 C20.30363973 110.7314507 20.28947897 121.76950155 20.28588867 132.80761719 C20.2856659 133.48756133 20.28544314 134.16750547 20.28521362 134.86805398 C20.28477103 136.23772487 20.28432901 137.60739577 20.28388755 138.97706666 C20.28366798 139.65264378 20.28344842 140.3282209 20.2832222 141.02427006 C20.28289822 142.03500477 20.28289822 142.03500477 20.28256769 143.06615836 C20.27864711 154.20456215 20.26594653 165.3429582 20.25287533 176.48135448 C20.24876857 180.29291365 20.2458469 184.10447243 20.24308014 187.91603279 C20.23820084 193.89378844 20.22802073 199.87151258 20.21364212 205.8492527 C20.20910441 208.04997218 20.206277 210.25069592 20.20523453 212.45141983 C20.20349947 215.44189355 20.19564491 218.43228731 20.18609619 221.42274475 C20.18696267 222.30560388 20.18782916 223.18846301 20.1887219 224.09807545 C20.15986146 230.07109558 20.15986146 230.07109558 19.0456543 231.18530273 C14.52151104 231.40411799 9.99203664 231.37109339 5.46313477 231.37060547 C3.18706433 231.37278701 0.9114823 231.39092503 -1.36450195 231.40991211 C-2.80851071 231.41284696 -4.25252177 231.41483114 -5.6965332 231.41577148 C-7.01508301 231.41988037 -8.33363281 231.42398926 -9.69213867 231.42822266 C-12.9543457 231.18530273 -12.9543457 231.18530273 -15.9543457 229.18530273 C-16.17542358 226.39677383 -16.23542106 223.83877093 -16.1418457 221.06030273 C-16.12831055 220.30620117 -16.11477539 219.55209961 -16.10083008 218.77514648 C-16.06544555 216.91156146 -16.01163737 215.04834296 -15.9543457 213.18530273 C-16.44161133 213.66999023 -16.92887695 214.15467773 -17.4309082 214.65405273 C-32.79038619 229.17574101 -51.13154537 234.82364776 -72.09106445 234.45483398 C-92.38765813 233.63652048 -110.6994631 224.3081062 -124.45043945 209.58325195 C-131.28218677 201.9201879 -136.10281384 193.68029513 -140.39575195 184.38842773 C-141.74079435 181.1812243 -141.74079435 181.1812243 -143.9543457 179.18530273 C-143.2943457 179.18530273 -142.6343457 179.18530273 -141.9543457 179.18530273 C-142.15930664 178.47245117 -142.36426758 177.75959961 -142.57543945 177.02514648 C-142.84485352 176.06737305 -143.11426758 175.10959961 -143.3918457 174.12280273 C-143.79209961 172.71321289 -143.79209961 172.71321289 -144.20043945 171.27514648 C-147.84070037 156.35573518 -146.91773895 139.91878632 -142.9543457 125.18530273 C-142.57149414 123.67129883 -142.57149414 123.67129883 -142.1809082 122.12670898 C-136.38374048 102.10254709 -121.66805211 85.94299483 -104.02075195 75.43920898 C-94.13510038 70.17473849 -83.18695047 66.68360683 -71.9543457 66.18530273 C-71.22602539 66.13374023 -70.49770508 66.08217773 -69.74731445 66.02905273 C-58.48820617 65.58092902 -47.64307124 67.90484812 -37.5793457 72.87280273 C-36.96236816 73.17508789 -36.34539062 73.47737305 -35.7097168 73.78881836 C-31.69242122 75.90666074 -28.23924353 78.48056691 -24.7097168 81.33691406 C-23.8169101 82.05752518 -22.92410339 82.77813629 -22.00424194 83.52058411 C-21.32777618 84.06994125 -20.65131042 84.6192984 -19.9543457 85.18530273 C-19.94625885 84.1771904 -19.938172 83.16907806 -19.92984009 82.13041687 C-19.85242372 72.63932495 -19.76469592 63.14837719 -19.66681862 53.65747356 C-19.61682931 48.77786297 -19.57049952 43.89827431 -19.5324707 39.01855469 C-19.49565116 34.31114952 -19.44930035 29.60392665 -19.3962822 24.89667702 C-19.37772051 23.09893803 -19.36261913 21.30115993 -19.35100174 19.50336266 C-19.33416956 16.98919296 -19.30514224 14.4754424 -19.27319336 11.96142578 C-19.27103317 11.21480179 -19.26887299 10.4681778 -19.26664734 9.69892883 C-19.20622879 5.98797112 -19.06751654 4.35505899 -16.9543457 1.18530273 C-11.78757033 -0.87590689 -5.49758218 -0.00064367 0 0 Z M-96.9543457 118.18530273 C-105.84461766 129.60150154 -107.813024 144.12242043 -106.9543457 158.18530273 C-105.51607213 168.37197431 -101.03864091 181.41242298 -92.9543457 188.18530273 C-92.2943457 188.18530273 -91.6343457 188.18530273 -90.9543457 188.18530273 C-90.9543457 188.84530273 -90.9543457 189.50530273 -90.9543457 190.18530273 C-80.25206638 198.4870708 -68.8791181 202.0767901 -55.3215332 200.97045898 C-41.63596407 198.6601941 -30.68449359 192.11698404 -22.5793457 180.81030273 C-14.34152782 167.50844383 -12.70257913 150.88366233 -16.0793457 135.74780273 C-18.57637422 127.33491693 -22.2283103 119.82866588 -29.3059082 114.45092773 C-30.9543457 113.18530273 -30.9543457 113.18530273 -33.3918457 110.56030273 C-41.84386232 102.72672636 -53.75968485 100.76994978 -64.9230957 100.90795898 C-77.88496866 102.09390355 -88.62148954 108.39054198 -96.9543457 118.18530273 Z " fill="#7D4DDE" transform="translate(287.954345703125,535.814697265625)"/>
<path d="M0 0 C14.87264425 14.13468862 24.94849581 35.49711706 25.796875 56.0703125 C25.8484375 57.00617188 25.9 57.94203125 25.953125 58.90625 C26.64315535 82.19477448 18.59690514 102.57820995 3.28515625 119.9140625 C-11.83812492 135.67836186 -32.38712639 145.51022498 -54.3203125 146.30859375 C-73.56653839 146.68115524 -90.89383437 143.94317292 -107.203125 133.0703125 C-107.863125 133.4003125 -108.523125 133.7303125 -109.203125 134.0703125 C-109.533125 133.0803125 -109.863125 132.0903125 -110.203125 131.0703125 C-112.02366272 129.45142403 -112.02366272 129.45142403 -114.265625 127.8828125 C-131.49113732 114.76638764 -141.772653 95.88624235 -145.453125 74.6328125 C-148.57636133 51.16633412 -142.98405855 27.96441319 -128.515625 9.0078125 C-117.55155519 -4.09508154 -104.21355206 -13.09556804 -88.203125 -18.9296875 C-87.43097656 -19.22617187 -86.65882813 -19.52265625 -85.86328125 -19.828125 C-56.08783124 -30.10956244 -23.08336507 -20.21840842 0 0 Z M-92.546875 24.21875 C-103.87771153 36.88577009 -107.05542485 51.25750811 -106.39550781 67.73876953 C-105.7911631 75.06299797 -103.8402173 82.29942565 -99.203125 88.0703125 C-98.89375 88.8746875 -98.584375 89.6790625 -98.265625 90.5078125 C-95.03393373 98.30189145 -87.30898007 104.09035632 -79.90625 107.66015625 C-74.41805236 109.84152513 -69.14001183 111.72108386 -63.203125 112.0703125 C-62.006875 112.1528125 -60.810625 112.2353125 -59.578125 112.3203125 C-47.20337095 112.08049169 -36.7934482 107.64967259 -27.890625 99.1953125 C-17.12467553 87.71452132 -13.75317949 73.66371387 -13.984375 58.22265625 C-14.47834989 44.75875314 -20.0677132 33.74119249 -29.203125 24.0703125 C-47.07757483 8.99780346 -74.97139922 8.05262841 -92.546875 24.21875 Z " fill="#5859E5" transform="translate(484.203125,624.9296875)"/>
<path d="M0 0 C1.71219727 -0.0309375 1.71219727 -0.0309375 3.45898438 -0.0625 C10.06438564 -0.09302756 15.0742454 0.39639131 21.0625 3.25 C23.48640039 5.67390039 22.23572421 11.46922115 22.24804688 14.85546875 C22.24796631 15.55591309 22.24788574 16.25635742 22.24780273 16.97802734 C22.24998389 19.10925415 22.26812102 21.239959 22.28710938 23.37109375 C22.29004433 24.72395656 22.29202844 26.07682183 22.29296875 27.4296875 C22.29707764 28.66444824 22.30118652 29.89920898 22.30541992 31.17138672 C22.0625 34.25 22.0625 34.25 20.0625 37.25 C16.05875393 37.52144041 12.59061168 37.32681625 8.625 36.75 C-0.51308221 35.46746215 -8.85408359 36.11342392 -16.875 41.0625 C-24.4780051 49.12629329 -23.27459016 59.64344249 -23.9375 70.25 C-9.4175 70.25 5.1025 70.25 20.0625 70.25 C22.10185241 74.32870481 22.30970929 75.98674663 22.29296875 80.40625 C22.29103516 81.59347656 22.28910156 82.78070312 22.28710938 84.00390625 C22.27486328 85.24011719 22.26261719 86.47632813 22.25 87.75 C22.2490332 89.60431641 22.2490332 89.60431641 22.24804688 91.49609375 C22.20313798 100.68744809 22.20313798 100.68744809 21.0625 105.25 C6.2125 105.25 -8.6375 105.25 -23.9375 105.25 C-23.9375 146.5 -23.9375 187.75 -23.9375 230.25 C-28.26080398 232.41165199 -31.11477618 232.43365411 -35.765625 232.2265625 C-36.51463074 232.20153656 -37.26363647 232.17651062 -38.03533936 232.15072632 C-40.41987015 232.06877032 -42.80354213 231.97208861 -45.1875 231.875 C-46.80725696 231.81673536 -48.42704883 231.75943262 -50.046875 231.703125 C-54.01090767 231.56322832 -57.97423501 231.41012553 -61.9375 231.25 C-63.54509666 227.69959589 -64.18608673 224.94451185 -64.17800903 221.05509949 C-64.18075836 220.03011353 -64.18350769 219.00512756 -64.18634033 217.94908142 C-64.17914978 216.83561844 -64.17195923 215.72215546 -64.16455078 214.57495117 C-64.16484283 213.394039 -64.16513489 212.21312683 -64.16543579 210.99642944 C-64.16428304 207.76741997 -64.15426789 204.53858492 -64.14028788 201.30961013 C-64.12776649 197.93170034 -64.12660891 194.55378696 -64.12423706 191.17585754 C-64.11802642 184.78340904 -64.10162126 178.39102913 -64.08153808 171.99861079 C-64.05916611 164.71932016 -64.04818239 157.44002621 -64.03814721 150.16070974 C-64.01725464 135.19042869 -63.98058363 120.22023671 -63.9375 105.25 C-73.1775 105.25 -82.4175 105.25 -91.9375 105.25 C-94.14035851 100.84428297 -93.12334947 94.86421191 -93.12280273 89.96435547 C-93.12499147 87.7585935 -93.1431586 85.55332984 -93.16210938 83.34765625 C-93.16504293 81.95052255 -93.16702798 80.55338647 -93.16796875 79.15625 C-93.17207764 77.88072266 -93.17618652 76.60519531 -93.18041992 75.29101562 C-92.9375 72.25 -92.9375 72.25 -90.9375 70.25 C-88.75439453 69.94702148 -88.75439453 69.94702148 -86.0703125 69.87109375 C-84.61818359 69.81985352 -84.61818359 69.81985352 -83.13671875 69.76757812 C-81.61498047 69.72793945 -81.61498047 69.72793945 -80.0625 69.6875 C-78.06498948 69.62739565 -76.06758216 69.56373037 -74.0703125 69.49609375 C-73.18230957 69.47216553 -72.29430664 69.4482373 -71.37939453 69.42358398 C-69.11042735 69.26229268 -67.11774133 68.87922056 -64.9375 68.25 C-64.89786133 67.56075439 -64.85822266 66.87150879 -64.81738281 66.16137695 C-63.61590219 46.29214016 -62.40582423 29.00947226 -47.25 14.4375 C-33.43325739 2.71737994 -17.4880146 0.07873051 0 0 Z " fill="#4E5FE7" transform="translate(612.9375,535.75)"/>
<path d="M0 0 C0.0246501 5.10863896 0.04283607 10.21724359 0.05493164 15.32592773 C0.05997204 17.06519168 0.0668043 18.80445136 0.07543945 20.54370117 C0.08751792 23.03825937 0.09323108 25.53276173 0.09765625 28.02734375 C0.10281754 28.80963852 0.10797882 29.59193329 0.11329651 30.39793396 C0.11349226 32.26567114 0.06199694 34.13329204 0 36 C-1 37 -1 37 -3.00390625 37.1328125 C-6.96464279 37.12071865 -10.75574755 37.03311898 -14.6875 36.5 C-27.30494076 34.79562796 -40.53889246 35.16274298 -51.3125 42.6875 C-52.57393011 43.75465922 -53.80273292 44.86132258 -55 46 C-55.68835938 46.64839844 -56.37671875 47.29679688 -57.0859375 47.96484375 C-66.60766256 57.75204441 -69.08576733 69.04999893 -69.56640625 82.19140625 C-69.6090712 83.33146622 -69.65173615 84.47152618 -69.69569397 85.64613342 C-70.00209999 94.83727244 -70.06344296 104.020116 -70.02734375 113.21484375 C-70.02475178 113.89853657 -70.02215981 114.58222939 -70.01948929 115.28664017 C-69.99327489 121.61964476 -69.95315984 127.95253434 -69.90405273 134.28540039 C-69.87732959 137.80369399 -69.86027007 141.32192756 -69.84918404 144.84030342 C-69.8400261 146.80080691 -69.81965533 148.76124777 -69.79905701 150.72166443 C-69.79567825 151.89882523 -69.7922995 153.07598602 -69.78881836 154.28881836 C-69.77763222 155.83997597 -69.77763222 155.83997597 -69.76622009 157.42247009 C-70 160 -70 160 -72 163 C-74.72440135 163.35050108 -77.23246269 163.51296778 -79.96484375 163.546875 C-80.75395645 163.56719788 -81.54306915 163.58752075 -82.35609436 163.60845947 C-84.02622556 163.64869639 -85.69654002 163.68185182 -87.36694336 163.70849609 C-89.92425461 163.74978614 -92.48034173 163.81240714 -95.03710938 163.87890625 C-96.65882648 163.91531715 -98.2805714 163.95051379 -99.90234375 163.984375 C-100.66804184 164.0019989 -101.43373993 164.0196228 -102.22264099 164.03778076 C-105.434728 164.08462261 -107.92758442 164.02413853 -111 163 C-111 110.2 -111 57.4 -111 3 C-105.26080166 1.36022905 -102.09580811 0.77085114 -96.38671875 0.91796875 C-95.34328056 0.94483513 -95.34328056 0.94483513 -94.27876282 0.97224426 C-92.82231273 1.01313307 -91.36601039 1.05964386 -89.90991211 1.11157227 C-87.67637185 1.18788019 -85.44331715 1.2364659 -83.20898438 1.28320312 C-81.78901084 1.32646115 -80.36908512 1.37132533 -78.94921875 1.41796875 C-77.66362061 1.45688232 -76.37802246 1.4957959 -75.0534668 1.53588867 C-73.54200073 1.76562378 -73.54200073 1.76562378 -72 2 C-69.59880941 5.60178588 -69.56228678 8.50866369 -69.375 12.6875 C-69.31699219 13.7403418 -69.31699219 13.7403418 -69.2578125 14.81445312 C-69.1637666 16.54254655 -69.0808032 18.27123675 -69 20 C-68.44054687 19.443125 -67.88109375 18.88625 -67.3046875 18.3125 C-52.29637052 4.02805683 -20.9397377 -10.46986885 0 0 Z " fill="#4175EC" transform="translate(769,604)"/>
<path d="M0 0 C0.33 0.66 0.66 1.32 1 2 C2.65 1.34 4.3 0.68 6 0 C6 0.66 6 1.32 6 2 C6.90355225 1.99476318 7.80710449 1.98952637 8.73803711 1.98413086 C12.07951489 1.96712314 15.42094692 1.95456667 18.76245117 1.94506836 C20.21070073 1.94002899 21.65894517 1.93319747 23.10717773 1.92456055 C25.18474588 1.91247753 27.26224697 1.90676789 29.33984375 1.90234375 C30.59144287 1.89710693 31.84304199 1.89187012 33.13256836 1.88647461 C36 2 36 2 37 3 C37.09899269 5.04797261 37.12632309 7.09941667 37.12698364 9.14978027 C37.12854363 9.79921396 37.13010362 10.44864764 37.13171089 11.11776114 C37.13572255 13.30964981 37.13253062 15.5014701 37.12939453 17.69335938 C37.1307485 19.25836732 37.13252841 20.82337494 37.13470459 22.38838196 C37.13927946 26.65065854 37.13748914 30.91291104 37.1343255 35.17518806 C37.13180218 39.62570386 37.13413936 44.07621753 37.13571167 48.5267334 C37.13753345 56.00203829 37.13512684 63.47733332 37.13037109 70.95263672 C37.12492846 79.60782903 37.12669111 88.26299779 37.1321975 96.91818953 C37.1367284 104.33557573 37.13737929 111.75295483 37.13475883 119.17034197 C37.13319593 123.60645973 37.13300265 128.04256641 37.13629532 132.47868347 C37.1391737 136.64825232 37.13719896 140.81779065 37.13140106 144.98735619 C37.13007328 146.52209103 37.13046788 148.05682842 37.13266373 149.59156227 C37.13537456 151.67781667 37.13199497 153.76397175 37.12698364 155.85021973 C37.12660662 157.02051979 37.12622959 158.19081985 37.12584114 159.39658356 C37 162 37 162 36 163 C25.20096073 164.14915781 13.97293773 164.3387779 3.125 163.8125 C1.97257813 163.75707031 0.82015625 163.70164062 -0.3671875 163.64453125 C-3 163 -3 163 -4.14672565 161.26858997 C-5.10733211 158.71463744 -5.26363426 156.78367492 -5.28520203 154.05802917 C-5.29781067 153.06238953 -5.31041931 152.06674988 -5.32341003 151.04093933 C-5.32714127 149.95388199 -5.3308725 148.86682465 -5.3347168 147.74682617 C-5.35219467 146.02110886 -5.35219467 146.02110886 -5.37002563 144.26052856 C-5.40613181 140.43802332 -5.42794436 136.61558322 -5.44921875 132.79296875 C-5.47049671 130.11525168 -5.49242835 127.43754689 -5.51509094 124.75984192 C-5.56122392 119.12321253 -5.59955131 113.4865713 -5.63305664 107.84985352 C-5.67135335 101.41897209 -5.7205913 94.98825284 -5.77638692 88.55750102 C-5.83043414 82.30631557 -5.8771593 76.05509503 -5.92057228 69.80382729 C-5.93884925 67.18068041 -5.95960697 64.55759118 -5.98166466 61.93446922 C-6.09782026 47.55485988 -6.006997 33.19809692 -5.56567383 18.82543945 C-5.54595941 18.14656689 -5.52624499 17.46769433 -5.50593317 16.76824987 C-5.44877192 14.85426695 -5.38366516 12.94052629 -5.31819153 11.02680969 C-5.2812106 9.93341435 -5.24422968 8.84001902 -5.20612812 7.71349049 C-5 5 -5 5 -4 2 C-2.68 2 -1.36 2 0 2 C0 1.34 0 0.68 0 0 Z " fill="#3E7BEB" transform="translate(802,604)"/>
<path d="M0 0 C0.495 0.99 0.495 0.99 1 2 C1.86625 2.2475 2.7325 2.495 3.625 2.75 C10.73526137 5.38343014 14.77834608 10.30887263 18 17 C20.07194064 23.77580588 19.94424825 30.78846189 17 37.25 C12.92685442 44.38651413 8.11868567 48.69958199 0.1875 51.0625 C-6.79201971 52.47072592 -13.09487771 52.18508474 -19.39453125 48.66015625 C-24.49494888 45.04850917 -24.49494888 45.04850917 -26.02734375 41.8671875 C-26.91060965 39.643533 -26.91060965 39.643533 -30 39 C-33.39615309 30.53685915 -32.32503639 22.21936566 -29 14 C-26.35909224 8.02320876 -21.01583496 4.43937578 -15.25 1.6875 C-10.21369422 0.62212762 -5.13143412 0.31552508 0 0 Z " fill="#446FEB" transform="translate(825,536)"/>
<path d="M0 0 C0.33 0 0.66 0 1 0 C1.33 51.48 1.66 102.96 2 156 C19.325 156.495 19.325 156.495 37 157 C36.98428955 154.4221167 36.9685791 151.8442334 36.95239258 149.18823242 C36.90252166 140.63877948 36.86948133 132.08931986 36.84456348 123.53975964 C36.82895595 118.35984239 36.80780802 113.18007511 36.77368164 108.00024414 C36.74091224 102.99464267 36.7231101 97.98918479 36.71536827 92.98348427 C36.70985617 91.08065852 36.69909296 89.17783998 36.68280983 87.27507591 C36.5256835 68.14050625 36.5256835 68.14050625 40 59 C40.33 59 40.66 59 41 59 C40.96970703 59.80663086 40.93941406 60.61326172 40.90820312 61.44433594 C40.30690315 78.21135457 39.9551894 94.9675567 39.96875 111.74609375 C39.96925858 112.42301144 39.96976715 113.09992912 39.97029114 113.79735947 C39.97696426 120.64848091 39.99531607 127.49950062 40.02805328 134.35054684 C40.03691674 136.31759952 40.04344766 138.28466227 40.04992676 140.25172424 C40.05815353 142.69147076 40.07059859 145.13120762 40.08776855 147.57090759 C40.09103149 148.65376541 40.09429443 149.73662323 40.09765625 150.85229492 C40.10289307 151.80214767 40.10812988 152.75200043 40.11352539 153.7306366 C40 156 40 156 39 158 C26.13 158 13.26 158 0 158 C0 105.86 0 53.72 0 0 Z " fill="#426CCB" transform="translate(659,608)"/>
<path d="M0 0 C1.59752849 0.00031727 3.19507824 0.01165096 4.79248047 0.03173828 C6.05341019 0.03598312 6.05341019 0.03598312 7.33981323 0.04031372 C10.02990843 0.05152648 12.71967307 0.07663275 15.40966797 0.10205078 C17.23127775 0.11207918 19.05289274 0.12120527 20.87451172 0.12939453 C25.34469155 0.15146937 29.81462368 0.18600644 34.28466797 0.22705078 C34.28466797 0.55705078 34.28466797 0.88705078 34.28466797 1.22705078 C22.07466797 1.22705078 9.86466797 1.22705078 -2.71533203 1.22705078 C-2.70373047 5.45001953 -2.69212891 9.67298828 -2.68017578 14.02392578 C-2.66780095 20.00829771 -2.65932426 25.99266971 -2.65283203 31.97705078 C-2.65197601 32.76030731 -2.65112 33.54356384 -2.65023804 34.35055542 C-2.62289093 62.81232634 -2.85422233 91.2677021 -3.21533203 119.72705078 C-3.22728985 120.66987411 -3.23924767 121.61269745 -3.25156784 122.58409119 C-3.39870469 134.13184798 -3.55323363 145.67949441 -3.71533203 157.22705078 C-4.37533203 156.89705078 -5.03533203 156.56705078 -5.71533203 156.22705078 C-5.87091775 140.72530566 -6.01886762 125.22350064 -6.15829563 109.72160244 C-6.22323709 102.5200115 -6.29046178 95.31845686 -6.36352539 88.11694336 C-6.42737536 81.8229511 -6.4864699 75.52893304 -6.54038757 69.23484761 C-6.56895495 65.91777489 -6.60024973 62.60078966 -6.63586617 59.28378105 C-6.78191087 45.54337804 -6.7814582 31.81414965 -6.40478313 18.07779706 C-6.36710933 16.68920845 -6.33238734 15.30053635 -6.30073655 13.9117974 C-6.25517973 11.99135112 -6.19477852 10.07127414 -6.13365173 8.15126038 C-6.1014601 7.05352326 -6.06926847 5.95578615 -6.03610134 4.82478428 C-5.5019185 0.49873242 -4.25149042 0.25981641 0 0 Z " fill="#4978D7" transform="translate(802.71533203125,606.77294921875)"/>
<path d="M0 0 C0.33 0 0.66 0 1 0 C1 41.25 1 82.5 1 125 C-3.32330398 127.16165199 -6.17727618 127.18365411 -10.828125 126.9765625 C-11.57713074 126.95153656 -12.32613647 126.92651062 -13.09783936 126.90072632 C-15.48237015 126.81877032 -17.86604213 126.72208861 -20.25 126.625 C-21.86975696 126.56673536 -23.48954883 126.50943262 -25.109375 126.453125 C-29.07340767 126.31322832 -33.03673501 126.16012553 -37 126 C-39.02434652 121.8227447 -39.27500544 118.10481153 -39.22705078 113.54760742 C-39.22734283 112.8153595 -39.22763489 112.08311157 -39.22793579 111.32867432 C-39.2265482 108.92081641 -39.21101418 106.51327225 -39.1953125 104.10546875 C-39.19158033 102.43109811 -39.18873432 100.75672529 -39.18673706 99.08235168 C-39.17911663 94.68468144 -39.15948184 90.28714421 -39.1373291 85.88952637 C-39.11683638 81.39837442 -39.10772802 76.90720089 -39.09765625 72.41601562 C-39.0762344 63.61061618 -39.04211772 54.80532466 -39 46 C-38.67 46 -38.34 46 -38 46 C-37.67 48.97 -37.34 51.94 -37 55 C-36.67 55 -36.34 55 -36 55 C-35.77947709 78.0078899 -36.44099375 101.00088578 -37 124 C-25.45 124 -13.9 124 -2 124 C-2.2475 117.565 -2.2475 117.565 -2.5 111 C-2.98569257 97.66283635 -3.1215091 84.34543812 -3 71 C-2.34 71 -1.68 71 -1 71 C-0.67 47.57 -0.34 24.14 0 0 Z " fill="#678CE9" transform="translate(588,641)"/>
<path d="M0 0 C5.66753067 1.64721335 10.70560982 4.2625695 15.9375 6.9375 C23.48205385 10.75197241 31.05129809 14.49742442 38.6875 18.125 C49.00478727 23.03097537 59.28716404 28.00693886 69.5625 33 C70.72161392 33.56294769 70.72161392 33.56294769 71.90414429 34.13726807 C74.12512704 35.2160421 76.34583118 36.29538707 78.56640625 37.375 C79.22800751 37.69644989 79.88960876 38.01789978 80.57125854 38.34909058 C83.49525647 39.77184393 86.39986346 41.21067082 89.27709961 42.7265625 C91.9519218 44.21181837 91.9519218 44.21181837 95 44 C95 44.66 95 45.32 95 46 C95.87164795 46.27690674 96.7432959 46.55381348 97.64135742 46.83911133 C103.0554408 48.71044712 108.14454778 51.22901834 113.3125 53.6875 C114.40240234 54.19216797 115.49230469 54.69683594 116.61523438 55.21679688 C127.27851693 60.28874907 135.42248048 66.13372073 142 76 C142.125 79.1875 142.125 79.1875 142 82 C140 80 140 80 138.75 77.3125 C136.2082305 72.50129345 133.30395732 67.76798577 128 66 C128 65.34 128 64.68 128 64 C125.36 63.34 122.72 62.68 120 62 C120 61.34 120 60.68 120 60 C118.35 59.67 116.7 59.34 115 59 C115 58.34 115 57.68 115 57 C112.69 56.67 110.38 56.34 108 56 C108 55.34 108 54.68 108 54 C107.46632813 53.82984375 106.93265625 53.6596875 106.3828125 53.484375 C102.04701853 52.07411675 97.75566832 50.57476721 93.5 48.9375 C92.6646875 48.61652344 91.829375 48.29554688 90.96875 47.96484375 C89 47 89 47 88 45 C86.1030751 43.8810243 86.1030751 43.8810243 83.75 42.8203125 C82.84540039 42.39282715 81.94080078 41.9653418 81.00878906 41.52490234 C80.01588867 41.06293457 79.02298828 40.6009668 78 40.125 C75.86965203 39.12008764 73.73944829 38.11486947 71.609375 37.109375 C70.50787109 36.59181641 69.40636719 36.07425781 68.27148438 35.54101562 C63.2525258 33.17686141 58.25066245 30.77755751 53.25 28.375 C52.25395752 27.89708008 51.25791504 27.41916016 50.23168945 26.92675781 C40.53720932 22.26981819 30.86154884 17.57419909 21.1875 12.875 C20.40967163 12.49720398 19.63184326 12.11940796 18.83044434 11.73016357 C16.60944378 10.65119856 14.38865117 9.57180712 12.16796875 8.4921875 C11.16962257 8.00703674 11.16962257 8.00703674 10.15110779 7.51208496 C8.43323414 6.67644325 6.71655372 5.83834972 5 5 C4.21278564 4.65984863 3.42557129 4.31969727 2.61450195 3.96923828 C1 3 1 3 0 0 Z " fill="#6855D0" transform="translate(579,372)"/>
<path d="M0 0 C0.33 0 0.66 0 1 0 C1 6.93 1 13.86 1 21 C15.52 21 30.04 21 45 21 C45 32.22 45 43.44 45 55 C30.48 55 15.96 55 1 55 C1 54.67 1 54.34 1 54 C15.19 54 29.38 54 44 54 C44 43.77 44 33.54 44 23 C38.67875 23.2475 38.67875 23.2475 33.25 23.5 C25.04125275 23.85582157 16.84181957 24.10670652 8.625 24.125 C7.78227539 24.12951172 6.93955078 24.13402344 6.07128906 24.13867188 C0.24824063 24.12412032 0.24824063 24.12412032 -2 23 C-2.24923458 15.06603268 -1.70994772 7.7558343 0 0 Z " fill="#4954D3" transform="translate(588,585)"/>
<path d="M0 0 C13.31420261 3.86541366 23.7929364 14.80557206 30.3347168 26.66577148 C37.35233204 40.04659205 38.36155895 55.7063674 34 70.1875 C33.35939804 72.13377332 32.70325141 74.07547716 32 76 C31.67 76 31.34 76 31 76 C30.80961982 71.71644595 31.14290697 67.95699888 32 63.75 C34.55251919 50.25286615 32.89490006 36.52725777 25.796875 24.59765625 C19.9435219 16.13574362 12.85159349 8.87260044 3.5625 4.3125 C1 3 1 3 0 0 Z " fill="#814DC4" transform="translate(534,221)"/>
<path d="M0 0 C0.33 0 0.66 0 1 0 C1 9.57 1 19.14 1 29 C-13 30 -13 30 -27 30 C-27 39.57 -27 49.14 -27 59 C-28.485 59.495 -28.485 59.495 -30 60 C-30.04938149 55.62176083 -30.0857104 51.24366854 -30.10986328 46.86523438 C-30.11993043 45.3752968 -30.13358518 43.88537903 -30.15087891 42.39550781 C-30.17509653 40.25580972 -30.18647564 38.11637247 -30.1953125 35.9765625 C-30.21102295 34.04417725 -30.21102295 34.04417725 -30.22705078 32.07275391 C-30 29 -30 29 -28 27 C-25.81689453 26.69702148 -25.81689453 26.69702148 -23.1328125 26.62109375 C-22.16472656 26.58693359 -21.19664062 26.55277344 -20.19921875 26.51757812 C-19.18472656 26.49115234 -18.17023437 26.46472656 -17.125 26.4375 C-15.12748948 26.37739565 -13.13008216 26.31373037 -11.1328125 26.24609375 C-9.80080811 26.21020142 -9.80080811 26.21020142 -8.44189453 26.17358398 C-5.71037268 26.05023074 -5.71037268 26.05023074 -2 25 C-1.34 16.75 -0.68 8.5 0 0 Z " fill="#7073E0" transform="translate(550,579)"/>
<path d="M0 0 C5.66751498 1.64720879 10.70564066 4.2625017 15.9375 6.9375 C27.54120207 12.80503237 39.25095935 18.43046348 51 24 C51.94294922 24.44746582 52.88589844 24.89493164 53.85742188 25.35595703 C59.23628229 27.9082095 64.61714758 30.45617826 70 33 C70 33.33 70 33.66 70 34 C63.66806621 33.52082663 58.89227657 31.31533918 53.25 28.5 C52.28860107 28.03021729 51.32720215 27.56043457 50.33666992 27.07641602 C48.15084343 26.00795898 45.9669719 24.93549678 43.78466797 23.85986328 C39.48132339 21.74088026 35.16464141 19.64961184 30.84765625 17.55859375 C24.64262769 14.55208102 18.43871526 11.54332278 12.23828125 8.52734375 C11.56628189 8.20068222 10.89428253 7.87402069 10.20191956 7.53746033 C8.46710408 6.69336914 6.73348814 5.84681376 5 5 C4.21133545 4.65912354 3.4226709 4.31824707 2.61010742 3.96704102 C1 3 1 3 0 0 Z " fill="#7756CF" transform="translate(579,372)"/>
<path d="M0 0 C0.33 0 0.66 0 1 0 C1 2.64 1 5.28 1 8 C0.34 8 -0.32 8 -1 8 C-1.33 38.03 -1.66 68.06 -2 99 C-14.54 99 -27.08 99 -40 99 C-38 97 -38 97 -34.56005859 96.86474609 C-33.08917674 96.90709751 -31.61859371 96.96076546 -30.1484375 97.0234375 C-29.37440582 97.04846344 -28.60037415 97.07348938 -27.80288696 97.09927368 C-25.32648467 97.18155915 -22.85086993 97.27811396 -20.375 97.375 C-18.69794902 97.43323094 -17.02086555 97.4905344 -15.34375 97.546875 C-11.22871231 97.68715034 -7.11432492 97.84022652 -3 98 C-3.00666183 96.9344841 -3.01332367 95.8689682 -3.02018738 94.77116394 C-3.08119415 84.69406432 -3.12606621 74.61700253 -3.15543652 64.53975964 C-3.17104405 59.35984239 -3.19219198 54.18007511 -3.22631836 49.00024414 C-3.25908776 43.99464267 -3.2768899 38.98918479 -3.28463173 33.98348427 C-3.29014383 32.08065852 -3.30090704 30.17783998 -3.31719017 28.27507591 C-3.4743165 9.14050625 -3.4743165 9.14050625 0 0 Z " fill="#235ACE" transform="translate(699,667)"/>
<path d="M0 0 C0.66 0.33 1.32 0.66 2 1 C-0.42765126 3.68574043 -3.08472698 5.34509176 -6.1875 7.1875 C-17.00975441 14.01735489 -25.80687215 23.98563065 -29.515625 36.46875 C-30.36345484 40.89934464 -30.58114232 45.36329459 -30.7890625 49.86328125 C-30.96039449 52.41105142 -31.26774989 54.56916971 -32 57 C-32 56.34 -32 55.68 -32 55 C-32.66 55 -33.32 55 -34 55 C-35.02282275 39.23148258 -29.59588298 26.15376715 -19.9375 13.8125 C-14.60910752 7.99526417 -7.01722972 3.50861486 0 0 Z " fill="#8652C0" transform="translate(485,221)"/>
<path d="M0 0 C0.33 0 0.66 0 1 0 C1.33 2.97 1.66 5.94 2 9 C2.33 9 2.66 9 3 9 C3.21527007 31.67511391 2.5687671 54.33402591 2 77 C-0.4295903 74.5704097 -0.23446257 73.30611087 -0.24884033 69.99156189 C-0.24164978 69.29744705 -0.23445923 68.60333221 -0.22705078 67.88818359 C-0.22734283 67.15637375 -0.22763489 66.4245639 -0.22793579 65.670578 C-0.22654001 63.24641146 -0.2109674 60.82255049 -0.1953125 58.3984375 C-0.19158325 56.71977913 -0.18873586 55.04111859 -0.18673706 53.36245728 C-0.17909369 48.94008393 -0.15943922 44.51784155 -0.1373291 40.09552002 C-0.11688579 35.58453137 -0.10773859 31.0735216 -0.09765625 26.5625 C-0.07619394 17.70827573 -0.04204955 8.85414875 0 0 Z " fill="#5A76D5" transform="translate(549,687)"/>
<path d="M0 0 C3.38524512 2.61587123 4.31367743 5.9354452 5 10 C6.06123658 21.06979538 2.50517027 30.10455786 -4 39 C-6.17819009 41.24419585 -8.48142214 43.15222981 -11 45 C-12.2065625 45.928125 -12.2065625 45.928125 -13.4375 46.875 C-13.953125 47.24625 -14.46875 47.6175 -15 48 C-16.32 47.34 -17.64 46.68 -19 46 C-18.27554688 45.59910156 -17.55109375 45.19820313 -16.8046875 44.78515625 C-9.93784013 40.74745 -5.73248865 37.03332895 -2 30 C-1.38125 28.96875 -0.7625 27.9375 -0.125 26.875 C3.03699665 18.93280842 1.35021257 8.27005201 0 0 Z " fill="#854CC9" transform="translate(540,259)"/>
<path d="M0 0 C0.66 0 1.32 0 2 0 C2.04946113 4.21751282 2.08574827 8.43487168 2.10986328 12.65258789 C2.119917 14.08718812 2.13356194 15.52176789 2.15087891 16.95629883 C2.17515549 19.01909438 2.18648919 21.08161885 2.1953125 23.14453125 C2.20578613 24.38565674 2.21625977 25.62678223 2.22705078 26.90551758 C2 30 2 30 0 33 C-3.9228625 33.26595678 -7.3110958 33.1080634 -11.1875 32.5 C-16.787062 31.76563121 -22.36068001 31.92367838 -28 32 C-24.26601857 29.51067905 -21.09126157 29.5165764 -16.75 29.3125 C-16.01136719 29.26544922 -15.27273438 29.21839844 -14.51171875 29.16992188 C-9.69142631 28.91062925 -5.96324286 29.29096531 -1 30 C-0.67 20.1 -0.34 10.2 0 0 Z " fill="#6E71DB" transform="translate(633,540)"/>
<path d="M0 0 C0.66 0 1.32 0 2 0 C2.0246501 5.10863896 2.04283607 10.21724359 2.05493164 15.32592773 C2.05997204 17.06519168 2.0668043 18.80445136 2.07543945 20.54370117 C2.08751792 23.03825937 2.09323108 25.53276173 2.09765625 28.02734375 C2.10281754 28.80963852 2.10797882 29.59193329 2.11329651 30.39793396 C2.11349226 32.26567114 2.06199694 34.13329204 2 36 C0.17941824 37.82058176 -2.27803639 37.17875418 -4.69921875 37.23046875 C-7 37 -7 37 -9.49609375 35.99609375 C-14.76643342 34.49783665 -19.92694867 34.79157872 -25.375 34.875 C-27.05142578 34.88853516 -27.05142578 34.88853516 -28.76171875 34.90234375 C-31.50803462 34.92581654 -34.25390472 34.95865272 -37 35 C-30.39399275 30.59599517 -21.79994411 31.23757794 -14.171875 32.44921875 C-12.57990078 32.79349538 -10.99255232 33.16090542 -9.4140625 33.5625 C-6.26093078 34.20804579 -6.26093078 34.20804579 0 34 C0 22.78 0 11.56 0 0 Z " fill="#517CDF" transform="translate(767,604)"/>
<path d="M0 0 C1.09651823 3.41139003 0.94215473 6.20655581 0.5625 9.75 C0.40974609 11.22726562 0.40974609 11.22726562 0.25390625 12.734375 C0.12822266 13.85585938 0.12822266 13.85585938 0 15 C0.86963379 15.27183105 1.73926758 15.54366211 2.63525391 15.82373047 C5.86212765 16.9518017 8.7876448 18.27977748 11.8359375 19.8203125 C12.89941406 20.35527344 13.96289062 20.89023437 15.05859375 21.44140625 C16.15300781 21.99699219 17.24742187 22.55257813 18.375 23.125 C19.49261719 23.68832031 20.61023438 24.25164062 21.76171875 24.83203125 C24.5096609 26.21774567 27.2556598 27.60716947 30 29 C29.01 29.66 28.02 30.32 27 31 C23.10251136 29.06581694 19.20730819 27.12707421 15.3125 25.1875 C14.20970703 24.64029297 13.10691406 24.09308594 11.97070312 23.52929688 C10.90400391 22.99755859 9.83730469 22.46582031 8.73828125 21.91796875 C7.75899658 21.43094482 6.77971191 20.9439209 5.77075195 20.44213867 C3.11168172 19.05812881 0.5524622 17.57058927 -2 16 C-1.85890014 13.89551062 -1.71195825 11.7914123 -1.5625 9.6875 C-1.48128906 8.51574219 -1.40007813 7.34398437 -1.31640625 6.13671875 C-1 3 -1 3 0 0 Z " fill="#8354CE" transform="translate(528,332)"/>
<path d="M0 0 C5.91370498 7.88493997 4.69464355 20.50491327 3.6875 30.0625 C3 33 3 33 0 37 C0 24.79 0 12.58 0 0 Z " fill="#5762D6" transform="translate(506,668)"/>
<path d="M0 0 C0.33 0.66 0.66 1.32 1 2 C1.66 2.33 2.32 2.66 3 3 C3 4.65 3 6.3 3 8 C3.66 8 4.32 8 5 8 C5.25652344 8.71542969 5.51304687 9.43085937 5.77734375 10.16796875 C8.44016981 17.09848909 11.66314006 22.8516977 16.14038086 28.72143555 C17.16484023 30.09733454 18.09140168 31.54498655 19 33 C18.67 33.99 18.34 34.98 18 36 C11.89313811 27.9148589 6.66299918 19.96008479 2.375 10.765625 C1.15412822 7.94187936 1.15412822 7.94187936 -1 6 C-0.34 6 0.32 6 1 6 C0.67 4.02 0.34 2.04 0 0 Z " fill="#8A5DCA" transform="translate(145,709)"/>
<path d="M0 0 C0 0.66 0 1.32 0 2 C1.485 2.495 1.485 2.495 3 3 C-8.22 3 -19.44 3 -31 3 C-22.61212664 -3.29090502 -9.97389852 -1.4776146 0 0 Z " fill="#8553CB" transform="translate(234,603)"/>
<path d="M0 0 C0.66 0 1.32 0 2 0 C1.39655936 3.57538577 1.07453909 3.94098989 -2 6.375 C-6.93928117 10.32233444 -9.82538394 15.63153273 -13.08203125 20.953125 C-15 24 -15 24 -17 26 C-18 23 -18 23 -16.8828125 20.65234375 C-11.96137746 13.05146074 -6.39916522 6.39916522 0 0 Z " fill="#705DD5" transform="translate(366,623)"/>
<path d="M0 0 C0.66 0.33 1.32 0.66 2 1 C-1.05035464 4.28432741 -4.63771647 6.00585215 -8.625 7.9375 C-9.34196045 8.28796387 -10.0589209 8.63842773 -10.79760742 8.99951172 C-12.21847749 9.69123207 -13.64088776 10.37979908 -15.06494141 11.06494141 C-16.7003297 11.85519338 -18.32595104 12.66560986 -19.94921875 13.48046875 C-22.3125 14.625 -22.3125 14.625 -26 16 C-26.99 15.34 -27.98 14.68 -29 14 C-24.91147781 11.97774877 -20.81807107 9.96589353 -16.71972656 7.96362305 C-15.32541973 7.28060771 -13.93250582 6.59474134 -12.54101562 5.90600586 C-10.54393613 4.91813427 -8.54211822 3.94052878 -6.5390625 2.96484375 C-5.91504547 2.65344955 -5.29102844 2.34205536 -4.64810181 2.02122498 C-3.12675713 1.28639361 -1.5656755 0.63492283 0 0 Z " fill="#8754C8" transform="translate(356,416)"/>
<path d="M0 0 C0.90901939 3.04842865 1.06173367 5.59661636 0.87890625 8.765625 C0.83056641 9.65507812 0.78222656 10.54453125 0.73242188 11.4609375 C0.64831055 12.84152344 0.64831055 12.84152344 0.5625 14.25 C0.51029297 15.18585938 0.45808594 16.12171875 0.40429688 17.0859375 C0.27493175 19.39098887 0.13997966 21.69557289 0 24 C-1.65 24.66 -3.3 25.32 -5 26 C-4.505 24.515 -4.505 24.515 -4 23 C-3.77192123 19.44486748 -3.60695695 15.89581826 -3.48242188 12.3359375 C-3.05232442 3.05232442 -3.05232442 3.05232442 0 0 Z " fill="#8851CE" transform="translate(504,323)"/>
<path d="M0 0 C0.33 0 0.66 0 1 0 C0.98839844 0.93199219 0.97679687 1.86398437 0.96484375 2.82421875 C0.91159623 10.34733255 1.1064655 17.69977629 1.87890625 25.1953125 C1.99973095 27.99376841 1.66993299 30.29049325 1 33 C-3.23592461 25.25135742 -2.59485949 14.60025662 -2 6 C-0.98828125 2.57421875 -0.98828125 2.57421875 0 0 Z " fill="#6D5DD3" transform="translate(340,673)"/>
<path d="M0 0 C4.9211437 0.58402678 8.64948359 2.76667217 12.875 5.1875 C13.58591797 5.59025146 14.29683594 5.99300293 15.02929688 6.40795898 C19.827434 9.18126013 24.01761499 12.11717461 28 16 C26.16015625 16.61328125 26.16015625 16.61328125 24 17 C21.4375 15.1875 21.4375 15.1875 19 13 C16.22030691 11.14687128 13.43041989 9.31391533 10.625 7.5 C9.68914062 6.8915625 8.75328125 6.283125 7.7890625 5.65625 C5.23712623 4.14081445 2.7833732 3.01213571 0 2 C0 1.34 0 0.68 0 0 Z " fill="#6058D5" transform="translate(455,608)"/>
<path d="M0 0 C0.66 0.33 1.32 0.66 2 1 C-0.22518963 3.40179198 -2.52950403 5.03886604 -5.3125 6.75 C-9.71719722 9.62916794 -12.8439297 12.8222531 -16 17 C-16.61875 17.804375 -17.2375 18.60875 -17.875 19.4375 C-18.24625 19.953125 -18.6175 20.46875 -19 21 C-19.35990346 17.74345421 -19.20676667 16.31514437 -17.3828125 13.53515625 C-12.27531983 7.94165649 -7.09147608 2.96260154 0 0 Z " fill="#804DBE" transform="translate(325,431)"/>
<path d="M0 0 C-2.38762181 2.38762181 -4.69633285 3.37302257 -7.75 4.8125 C-11.27669307 6.53376189 -14.45351322 8.11753731 -17.375 10.75 C-20.18292128 13.15678967 -22.45149586 14.07062987 -26 15 C-20.44800088 8.87365615 -8.83072924 -2.94357641 0 0 Z " fill="#8552C4" transform="translate(194,609)"/>
<path d="M0 0 C0.99 0.66 1.98 1.32 3 2 C3.29296875 5.0390625 3.29296875 5.0390625 3.1875 8.625 C3.16042969 9.81351562 3.13335938 11.00203125 3.10546875 12.2265625 C3.07066406 13.14179688 3.03585937 14.05703125 3 15 C2.34 15 1.68 15 1 15 C1 15.66 1 16.32 1 17 C0.34 17 -0.32 17 -1 17 C-2.12798914 13.61603259 -1.94272259 11.47109037 -1.625 7.9375 C-1.53476562 6.87402344 -1.44453125 5.81054688 -1.3515625 4.71484375 C-1 2 -1 2 0 0 Z " fill="#6155D6" transform="translate(721,455)"/>
<path d="M0 0 C2 3.75 2 3.75 2 6 C2.66 6 3.32 6 4 6 C4.32613281 6.79664063 4.65226562 7.59328125 4.98828125 8.4140625 C7.71178073 15.05895018 7.71178073 15.05895018 10.875 21.5 C12.16078501 24.35730001 11.89042412 25.12136859 11 28 C5.67666567 19.89609241 -0.6302421 10.02826395 0 0 Z " fill="#6A5ED1" transform="translate(341,706)"/>
<path d="M0 0 C0.33 0 0.66 0 1 0 C1.33 2.97 1.66 5.94 2 9 C2.33 9 2.66 9 3 9 C3 16.92 3 24.84 3 33 C2.505 31.515 2.505 31.515 2 30 C1.34 30 0.68 30 0 30 C0 20.1 0 10.2 0 0 Z " fill="#5E7AE6" transform="translate(549,687)"/>
<path d="M0 0 C8.91 0 17.82 0 27 0 C23.0721361 3.9278639 18.26502207 3.21709867 13.0625 3.25 C12.25103516 3.270625 11.43957031 3.29125 10.60351562 3.3125 C9.81783203 3.31765625 9.03214844 3.3228125 8.22265625 3.328125 C7.15156616 3.34214355 7.15156616 3.34214355 6.05883789 3.35644531 C4 3 4 3 0 0 Z " fill="#7C52C7" transform="translate(207,767)"/>
<path d="M0 0 C-3 2 -3 2 -5.0859375 2.9375 C-11.99081911 6.14249624 -14.20813146 10.10442108 -17 17 C-17.65485773 18.33917272 -18.31746522 19.67471946 -19 21 C-18.33195249 9.13639772 -18.33195249 9.13639772 -13.26953125 4.37109375 C-8.72361088 0.58136129 -5.89710807 -0.73713851 0 0 Z " fill="#4963CE" transform="translate(814,539)"/>
<path d="M0 0 C0.33 0.66 0.66 1.32 1 2 C1.804375 2.268125 2.60875 2.53625 3.4375 2.8125 C8.20779339 4.4025978 12.54237025 6.69189922 17 9 C16.67 9.99 16.34 10.98 16 12 C15.34 12 14.68 12 14 12 C14 11.34 14 10.68 14 10 C12.58398286 9.51891725 11.16715563 9.04021859 9.75 8.5625 C8.96109375 8.29566406 8.1721875 8.02882813 7.359375 7.75390625 C5.25178012 7.08045292 3.15246027 6.50849405 1 6 C0.87625 5.360625 0.7525 4.72125 0.625 4.0625 C0.315625 3.0415625 0.315625 3.0415625 0 2 C-0.66 1.67 -1.32 1.34 -2 1 C-1.34 0.67 -0.68 0.34 0 0 Z " fill="#6B58D6" transform="translate(673,416)"/>
<path d="M0 0 C0.66 0 1.32 0 2 0 C0.51854383 4.44436852 -2.87683561 6.08935044 -6.75 8.25 C-7.66265625 8.79527344 -7.66265625 8.79527344 -8.59375 9.3515625 C-12.56099081 11.60644723 -15.45466601 12.41828227 -20 12 C-16.58801789 9.19668806 -12.83242632 7.33461674 -8.875 5.4375 C-4.1019447 3.23176545 -4.1019447 3.23176545 0 0 Z " fill="#754EC9" transform="translate(263,753)"/>
<path d="M0 0 C0.33 0.66 0.66 1.32 1 2 C1.66 2 2.32 2 3 2 C4.62557283 6.87671849 4.18452437 11.89381403 4.1875 17 C4.19974609 18.10601563 4.21199219 19.21203125 4.22460938 20.3515625 C4.22654297 21.41117188 4.22847656 22.47078125 4.23046875 23.5625 C4.23457764 24.53316406 4.23868652 25.50382813 4.24291992 26.50390625 C4 29 4 29 2 32 C2.03480469 30.04320312 2.03480469 30.04320312 2.0703125 28.046875 C2.18763923 18.4664139 2.13679233 9.38662345 0 0 Z " fill="#747ADD" transform="translate(467,667)"/>
<path d="M0 0 C0.55300781 0.22171875 1.10601563 0.4434375 1.67578125 0.671875 C0.67578125 3.671875 0.67578125 3.671875 -1.32421875 4.671875 C-2.31421875 5.001875 -3.30421875 5.331875 -4.32421875 5.671875 C-5.09378906 5.93226563 -5.86335937 6.19265625 -6.65625 6.4609375 C-8.87547975 7.2088354 -11.09821785 7.94442372 -13.32421875 8.671875 C-12.07557598 4.92594669 -10.83598941 4.42714515 -7.51171875 2.421875 C-6.63902344 1.88046875 -5.76632812 1.3390625 -4.8671875 0.78125 C-2.32421875 -0.328125 -2.32421875 -0.328125 0 0 Z " fill="#8448D1" transform="translate(521.32421875,306.328125)"/>
<path d="M0 0 C0.77666016 -0.00386719 1.55332031 -0.00773438 2.35351562 -0.01171875 C5.67331172 -0.00599989 8.39243506 0.06831169 11.5625 1.125 C11.8925 2.115 12.2225 3.105 12.5625 4.125 C11.428125 3.96 10.29375 3.795 9.125 3.625 C1.81036726 2.72195892 -5.16086903 3.06658095 -12.4375 4.125 C-11.7775 3.795 -11.1175 3.465 -10.4375 3.125 C-10.4375 2.465 -10.4375 1.805 -10.4375 1.125 C-7.17139423 -0.50805288 -3.58486773 -0.01776152 0 0 Z " fill="#9E6ED9" transform="translate(510.4375,240.875)"/>
<path d="M0 0 C0.33 0.99 0.66 1.98 1 3 C-0.109375 4.98046875 -0.109375 4.98046875 -1.75 7.1875 C-4.68093891 11.34534357 -6.4216924 15.17739346 -8 20 C-9.12890625 18.3046875 -9.12890625 18.3046875 -10 16 C-8.13125609 9.87860103 -4.28902256 4.65665306 0 0 Z " fill="#8452CD" transform="translate(192,650)"/>
<path d="M0 0 C0.99 0.66 1.98 1.32 3 2 C3.3125 5 3.3125 5 3 8 C2.34 8.66 1.68 9.32 1 10 C0.3574765 12.06874034 0.3574765 12.06874034 0 14 C-1.65 14 -3.3 14 -5 14 C-5 13.01 -5 12.02 -5 11 C-3.68 10.67 -2.36 10.34 -1 10 C-0.67 6.7 -0.34 3.4 0 0 Z " fill="#6556D7" transform="translate(695,458)"/>
<path d="M0 0 C1.32 0 2.64 0 4 0 C3.01 2.97 2.02 5.94 1 9 C0.34 9 -0.32 9 -1 9 C-1.66 10.65 -2.32 12.3 -3 14 C-4.37095624 10.30962722 -3.60010967 8.29116165 -2.0625 4.75 C-1.68222656 3.85796875 -1.30195312 2.9659375 -0.91015625 2.046875 C-0.60980469 1.37140625 -0.30945313 0.6959375 0 0 Z " fill="#5A57DD" transform="translate(555,564)"/>
<path d="M0 0 C0.66 0.99 1.32 1.98 2 3 C1.34 3 0.68 3 0 3 C0.0825 3.886875 0.165 4.77375 0.25 5.6875 C0.29957626 11.68622707 -2.10837003 17.38422351 -4 23 C-4.33 23 -4.66 23 -5 23 C-4.67580986 14.76557056 -2.88996879 7.70210288 0 0 Z " fill="#8E5FCA" transform="translate(148,652)"/>
<path d="M0 0 C1.16550781 3.49652342 1.42701521 6.85321296 1.6875 10.5 C1.74744141 11.17675781 1.80738281 11.85351562 1.86914062 12.55078125 C2.14283214 16.35246891 2.17932017 17.73101975 0 21 C-2.4579123 13.47264358 -2.4579123 7.52735642 0 0 Z " fill="#5F80DD" transform="translate(795,552)"/>
<path d="M0 0 C-5.89137455 2.46599967 -11.15695675 3.62447743 -17.5 4.1875 C-18.73363281 4.3102832 -18.73363281 4.3102832 -19.9921875 4.43554688 C-21.99385775 4.63338638 -23.99681953 4.81808724 -26 5 C-26 4.34 -26 3.68 -26 3 C-26.99 2.67 -27.98 2.34 -29 2 C-28.17757812 2.02320313 -27.35515625 2.04640625 -26.5078125 2.0703125 C-18.94009331 2.19265438 -6.60545879 -2.2018196 0 0 Z " fill="#9878DA" transform="translate(246,734)"/>
<path d="M0 0 C4.23322844 0.62045463 7.52290295 2.10523559 11.3125 4.0625 C12.38113281 4.61035156 13.44976563 5.15820312 14.55078125 5.72265625 C15.35902344 6.14417969 16.16726563 6.56570313 17 7 C17 7.33 17 7.66 17 8 C10.50857435 7.57664615 5.66507011 5.08900201 0 2 C0 1.34 0 0.68 0 0 Z " fill="#685AD7" transform="translate(676,448)"/>
<path d="M0 0 C4.05903615 1.20674048 7.92998281 2.75912018 11.8125 4.4375 C12.76769531 4.84871094 13.72289062 5.25992187 14.70703125 5.68359375 C17 7 17 7 18 10 C13.53202662 8.60121198 9.36177921 6.86369228 5.125 4.875 C3.97257813 4.33617187 2.82015625 3.79734375 1.6328125 3.2421875 C0.32957031 2.62730469 0.32957031 2.62730469 -1 2 C-0.67 1.34 -0.34 0.68 0 0 Z " fill="#8457D2" transform="translate(532,378)"/>
<path d="M0 0 C3.73724772 0.55153215 5.2235991 1.96149761 7.625 4.8125 C8.21539062 5.49957031 8.80578125 6.18664062 9.4140625 6.89453125 C10.89910579 8.86605423 11.98239206 10.75823992 13 13 C9.36938333 11.46781315 7.0136227 9.2816856 4.25 6.5 C3.45078125 5.7059375 2.6515625 4.911875 1.828125 4.09375 C0 2 0 2 0 0 Z " fill="#6660D3" transform="translate(357,739)"/>
<path d="M0 0 C10.46511628 3.27906977 10.46511628 3.27906977 15 6 C15.33 6.99 15.66 7.98 16 9 C3.5 5.25 3.5 5.25 0 0 Z " fill="#7C55D4" transform="translate(571,397)"/>
<path d="M0 0 C1.09651823 3.41139003 0.94215473 6.20655581 0.5625 9.75 C0.40974609 11.22726562 0.40974609 11.22726562 0.25390625 12.734375 C0.12822266 13.85585938 0.12822266 13.85585938 0 15 C1.423125 15.433125 1.423125 15.433125 2.875 15.875 C6 17 6 17 8 19 C6.72125 18.896875 5.4425 18.79375 4.125 18.6875 C3.40570312 18.62949219 2.68640625 18.57148438 1.9453125 18.51171875 C0 18 0 18 -2 15 C-2.01171875 12.1875 -2.01171875 12.1875 -1.6875 9 C-1.58824219 7.948125 -1.48898437 6.89625 -1.38671875 5.8125 C-1 3 -1 3 0 0 Z " fill="#9468D9" transform="translate(528,332)"/>
<path d="M0 0 C2 1 4 2 6 3 C6 3.66 6 4.32 6 5 C6.598125 5.268125 7.19625 5.53625 7.8125 5.8125 C9.97224808 6.98493467 11.35790256 8.19369282 13 10 C8.8911959 9.47470631 6.74480159 8.33192009 3.6875 5.5625 C2.99011719 4.94503906 2.29273438 4.32757812 1.57421875 3.69140625 C0 2 0 2 0 0 Z " fill="#8456CE" transform="translate(191,721)"/>
<path d="M0 0 C0.33 0 0.66 0 1 0 C1 2.64 1 5.28 1 8 C0.34 8 -0.32 8 -1 8 C-1 12.29 -1 16.58 -1 21 C-4.09481974 14.81036053 -2.81801515 8.83899377 -0.9375 2.3125 C-0.4734375 1.1678125 -0.4734375 1.1678125 0 0 Z " fill="#3A69D2" transform="translate(699,667)"/>
<path d="M0 0 C2.76548612 1.92381643 3.04239971 3.20139862 3.75 6.5625 C4.21219945 11.42918836 3.64302034 16.17240111 3 21 C2.67 21 2.34 21 2 21 C1.93941406 20.154375 1.87882813 19.30875 1.81640625 18.4375 C1.36040967 12.2640078 0.84179888 6.13310616 0 0 Z " fill="#9665D3" transform="translate(540,259)"/>
<path d="M0 0 C-2.34882224 2.34882224 -4.27123667 3.03503024 -7.375 4.1875 C-8.33148438 4.55230469 -9.28796875 4.91710937 -10.2734375 5.29296875 C-13.05285296 6.01370542 -14.35108103 5.98549829 -17 5 C-16.01 5 -15.02 5 -14 5 C-14 4.34 -14 3.68 -14 3 C-4.58997722 -0.44419134 -4.58997722 -0.44419134 0 0 Z " fill="#5F6BDA" transform="translate(463,762)"/>
<path d="M0 0 C0.33 0 0.66 0 1 0 C1.08160748 1.89510699 1.13946459 3.79124504 1.1875 5.6875 C1.22230469 6.74324219 1.25710938 7.79898437 1.29296875 8.88671875 C0.96666615 12.35422768 -0.00969875 14.18432448 -2 17 C-3.44715727 13.12813552 -2.5441918 10.1767672 -1.5625 6.25 C-1.27503906 5.07953125 -0.98757813 3.9090625 -0.69140625 2.703125 C-0.46324219 1.81109375 -0.23507812 0.9190625 0 0 Z " fill="#8650C7" transform="translate(477,265)"/>
<path d="M0 0 C6.93 0 13.86 0 21 0 C20.01 0.33 19.02 0.66 18 1 C18 1.66 18 2.32 18 3 C15.74943278 2.88566637 13.49953326 2.75813564 11.25 2.625 C9.99703125 2.55539062 8.7440625 2.48578125 7.453125 2.4140625 C4 2 4 2 0 0 Z " fill="#7279DE" transform="translate(414,736)"/>
<path d="M0 0 C0 3.62850626 -1.06953668 5.86167278 -2.5 9.1875 C-2.9640625 10.27417969 -3.428125 11.36085938 -3.90625 12.48046875 C-4.2671875 13.31191406 -4.628125 14.14335938 -5 15 C-5.33 15 -5.66 15 -6 15 C-6.31433405 9.76109914 -5.80778856 6.47166327 -3 2 C-2.01 1.34 -1.02 0.68 0 0 Z " fill="#5480DF" transform="translate(706,656)"/>
<path d="M0 0 C0 3.67034745 -1.0752892 5.0999431 -3 8.1875 C-3.556875 9.08855469 -4.11375 9.98960937 -4.6875 10.91796875 C-5.120625 11.60503906 -5.55375 12.29210937 -6 13 C-6.66 12.67 -7.32 12.34 -8 12 C-6.71999898 6.99635967 -4.82671924 4.43423522 -1 1 C-0.67 0.67 -0.34 0.34 0 0 Z " fill="#6450CE" transform="translate(356,636)"/>
<path d="M0 0 C-2.64212589 1.76141726 -5.2427764 3.23818698 -8.0625 4.6875 C-8.94035156 5.14511719 -9.81820313 5.60273438 -10.72265625 6.07421875 C-11.47417969 6.37972656 -12.22570312 6.68523437 -13 7 C-13.66 6.67 -14.32 6.34 -15 6 C-11.31946413 1.45345569 -5.73670284 -0.52151844 0 0 Z " fill="#8B56D1" transform="translate(455,399)"/>
<path d="M0 0 C0.33 0.66 0.66 1.32 1 2 C-0.43359375 4.6015625 -0.43359375 4.6015625 -2.4375 7.625 C-3.09621094 8.62789062 -3.75492187 9.63078125 -4.43359375 10.6640625 C-4.95050781 11.43492187 -5.46742188 12.20578125 -6 13 C-6.66 12.67 -7.32 12.34 -8 12 C-2.83076923 1.41538462 -2.83076923 1.41538462 0 0 Z " fill="#734BCA" transform="translate(269,711)"/>
<path d="M0 0 C3.98381075 2.16264012 6.88983545 4.71211176 10 8 C6.14369327 7.46440184 3.97914046 6.48261705 1 4 C0.01 3.34 -0.98 2.68 -2 2 C-1.34 2 -0.68 2 0 2 C0 1.34 0 0.68 0 0 Z " fill="#6661DB" transform="translate(473,617)"/>
<path d="M0 0 C0 0.33 0 0.66 0 1 C3.3 1.33 6.6 1.66 10 2 C10 2.33 10 2.66 10 3 C4.07638021 4.28774343 -1.20563241 3.8981549 -7 2 C-7.33 1.34 -7.66 0.68 -8 0 C-4.71023192 -1.09658936 -3.28696233 -0.79953138 0 0 Z " fill="#6888E1" transform="translate(815,584)"/>
<path d="M0 0 C3.71888239 0.50712033 6.73454239 1.11608215 10 3 C10 3.66 10 4.32 10 5 C10.66 5 11.32 5 12 5 C11.67 5.99 11.34 6.98 11 8 C10.484375 7.5875 9.96875 7.175 9.4375 6.75 C6.40927234 4.57588783 3.25575319 2.81570851 0 1 C0 0.67 0 0.34 0 0 Z " fill="#674ED4" transform="translate(661,413)"/>
<path d="M0 0 C7.24101736 -0.61364554 7.24101736 -0.61364554 10.9375 2.375 C13 5 13 5 14 7 C13.44828125 6.71382812 12.8965625 6.42765625 12.328125 6.1328125 C9.84094711 4.92260849 7.32252247 3.8904694 4.75 2.875 C3.85796875 2.52179687 2.9659375 2.16859375 2.046875 1.8046875 C1.03367188 1.40636719 1.03367188 1.40636719 0 1 C0 0.67 0 0.34 0 0 Z " fill="#8A60D3" transform="translate(241,639)"/>
<path d="M0 0 C2.912575 0.08566397 4.56798024 0.57910955 6.66796875 2.625 C8.16091772 4.38391375 9.60436262 6.16313019 11 8 C10.67 8.66 10.34 9.32 10 10 C6.66666667 6.66666667 3.33333333 3.33333333 0 0 Z " fill="#526BD1" transform="translate(830,541)"/>
<path d="M0 0 C1.8871875 0.0309375 1.8871875 0.0309375 3.8125 0.0625 C1.65150627 2.22349373 0.2914582 2.77813716 -2.5625 3.75 C-3.33335937 4.02199219 -4.10421875 4.29398438 -4.8984375 4.57421875 C-7.38805308 5.10528009 -8.80303018 4.87365526 -11.1875 4.0625 C-9.8675 3.7325 -8.5475 3.4025 -7.1875 3.0625 C-7.1875 2.4025 -7.1875 1.7425 -7.1875 1.0625 C-4.43671116 0.14557039 -2.82801087 -0.04636083 0 0 Z " fill="#524BD2" transform="translate(590.1875,538.9375)"/>
<path d="M0 0 C3.38891322 0.68886787 6.18011613 1.98716486 9.25 3.5625 C10.14203125 4.01753906 11.0340625 4.47257812 11.953125 4.94140625 C12.96632813 5.46541016 12.96632813 5.46541016 14 6 C10.69578108 7.06751688 9.96827813 6.98942604 6.4375 5.8125 C3.20704423 4.10916878 1.80924949 3.08636678 0 0 Z " fill="#865DD1" transform="translate(558,362)"/>
<path d="M0 0 C3 1 3 1 4.38671875 3.28515625 C4.81597656 4.20167969 5.24523437 5.11820313 5.6875 6.0625 C6.34298828 7.44115234 6.34298828 7.44115234 7.01171875 8.84765625 C7.33785156 9.55792969 7.66398438 10.26820313 8 11 C7.01 11 6.02 11 5 11 C4.16151196 9.54462432 3.32936066 8.08559627 2.5 6.625 C1.80390625 5.40683594 1.80390625 5.40683594 1.09375 4.1640625 C0 2 0 2 0 0 Z " fill="#7D49CA" transform="translate(184,710)"/>
<path d="M0 0 C0.90105469 0.00902344 1.80210937 0.01804687 2.73046875 0.02734375 C3.41753906 0.03894531 4.10460937 0.05054688 4.8125 0.0625 C0.5938006 2.2551135 -3.78935899 4.43144477 -8.625 3.6875 C-9.140625 3.48125 -9.65625 3.275 -10.1875 3.0625 C-9.5275 3.0625 -8.8675 3.0625 -8.1875 3.0625 C-8.1875 2.4025 -8.1875 1.7425 -8.1875 1.0625 C-5.17259443 0.05753148 -3.14568308 -0.04085303 0 0 Z " fill="#406AD8" transform="translate(735.1875,604.9375)"/>
<path d="M0 0 C0.66 0.33 1.32 0.66 2 1 C0.98046875 2.48828125 0.98046875 2.48828125 -1 4 C-3.64996326 4.2172101 -6.05076558 4.28351554 -8.6875 4.1875 C-9.38939453 4.17396484 -10.09128906 4.16042969 -10.81445312 4.14648438 C-12.54329829 4.11120182 -14.27174765 4.05739583 -16 4 C-16 3.67 -16 3.34 -16 3 C-14.51886719 2.80083984 -14.51886719 2.80083984 -13.0078125 2.59765625 C-11.72648438 2.42105469 -10.44515625 2.24445312 -9.125 2.0625 C-7.21074219 1.80146484 -7.21074219 1.80146484 -5.2578125 1.53515625 C-2.12440546 1.18566773 -2.12440546 1.18566773 0 0 Z " fill="#3F5DCB" transform="translate(830,582)"/>
<path d="M0 0 C0.99 0.33 1.98 0.66 3 1 C2.65066406 1.51949219 2.30132813 2.03898438 1.94140625 2.57421875 C-1.54055504 7.87724314 -1.54055504 7.87724314 -3 14 C-3.33 14 -3.66 14 -4 14 C-4.43177893 7.73920552 -3.92739438 4.90924297 0 0 Z " fill="#6263D7" transform="translate(593,576)"/>
<path d="M0 0 C0.99 0.33 1.98 0.66 3 1 C1.90653119 2.34212062 0.7998425 3.67347975 -0.3125 5 C-1.23482422 6.11375 -1.23482422 6.11375 -2.17578125 7.25 C-4 9 -4 9 -7 9 C-4.69 6.03 -2.38 3.06 0 0 Z " fill="#5474D6" transform="translate(838,574)"/>
<path d="M0 0 C1.21065165 3.63195496 0.62784815 5.06531629 -0.4375 8.6875 C-0.86869141 10.17830078 -0.86869141 10.17830078 -1.30859375 11.69921875 C-1.53675781 12.45847656 -1.76492188 13.21773437 -2 14 C-2.33 14 -2.66 14 -3 14 C-3.32374517 8.49633208 -3.53286034 4.56327794 0 0 Z " fill="#5C45C9" transform="translate(344,658)"/>
<path d="M0 0 C0.33 0.66 0.66 1.32 1 2 C1.66 2 2.32 2 3 2 C6.22265625 7.17578125 6.22265625 7.17578125 7 9 C6.67 9.99 6.34 10.98 6 12 C4.99157547 10.56839732 3.99352109 9.12948547 3 7.6875 C2.1646875 6.48673828 2.1646875 6.48673828 1.3125 5.26171875 C0 3 0 3 0 0 Z " fill="#8A5AC9" transform="translate(304,474)"/>
<path d="M0 0 C1.48454806 0.59082014 2.96254351 1.19812655 4.4375 1.8125 C5.26121094 2.14894531 6.08492187 2.48539062 6.93359375 2.83203125 C9 4 9 4 10 7 C5.76570244 5.68938409 1.92592596 4.05643741 -2 2 C-1.34 1.34 -0.68 0.68 0 0 Z " fill="#765FDB" transform="translate(639,429)"/>
<path d="M0 0 C1.21386936 3.64160808 0.6674695 4.33165469 -0.9375 7.6875 C-1.31777344 8.49574219 -1.69804687 9.30398438 -2.08984375 10.13671875 C-2.39019531 10.75160156 -2.69054687 11.36648438 -3 12 C-3.33 12 -3.66 12 -4 12 C-4 9.36 -4 6.72 -4 4 C-3.34 4 -2.68 4 -2 4 C-2 3.34 -2 2.68 -2 2 C-1.34 2 -0.68 2 0 2 C0 1.34 0 0.68 0 0 Z " fill="#5F6FDB" transform="translate(504,714)"/>
<path d="M0 0 C2.55803184 3.83704776 4.34505724 7.75712791 3.625 12.4375 C3.41875 12.953125 3.2125 13.46875 3 14 C3 13.01 3 12.02 3 11 C2.34 11 1.68 11 1 11 C-0.28317892 7.15046324 -0.06643637 4.05261865 0 0 Z " fill="#646BD9" transform="translate(504,657)"/>
<path d="M0 0 C8 0.92307692 8 0.92307692 11 3 C11.33 3.99 11.66 4.98 12 6 C7.76570244 4.68938409 3.92592596 3.05643741 0 1 C0 0.67 0 0.34 0 0 Z " fill="#7E4BCC" transform="translate(244,608)"/>
<path d="M0 0 C4.29 0.99 8.58 1.98 13 3 C13 3.33 13 3.66 13 4 C3.62773723 4.15620438 3.62773723 4.15620438 1 3 C0.67 2.01 0.34 1.02 0 0 Z " fill="#7647C4" transform="translate(193,763)"/>
<path d="M0 0 C3.31562557 0.55260426 6.15062207 1.16825705 9 3 C9.33 3.99 9.66 4.98 10 6 C6.27566618 4.7874262 2.62197194 3.49140021 -1 2 C-0.67 1.34 -0.34 0.68 0 0 Z " fill="#8D5ED4" transform="translate(513,369)"/>
<path d="M0 0 C0.33 0 0.66 0 1 0 C1.05437607 1.58294782 1.09296271 3.16644256 1.125 4.75 C1.14820313 5.63171875 1.17140625 6.5134375 1.1953125 7.421875 C0.99139502 10.1135858 0.36551721 11.69904974 -1 14 C-1.33 14 -1.66 14 -2 14 C-1.03644647 4.58997722 -1.03644647 4.58997722 0 0 Z " fill="#8362D2" transform="translate(272,696)"/>
<path d="M0 0 C3.87915244 0.57468925 6.14756605 2.37884447 9 5 C9.33 5.99 9.66 6.98 10 8 C6.05205855 6.32971708 3.18203882 3.8204435 0 1 C0 0.67 0 0.34 0 0 Z " fill="#7B47CE" transform="translate(259,616)"/>
<path d="M0 0 C-0.66 0 -1.32 0 -2 0 C-2.33 0.99 -2.66 1.98 -3 3 C-5.9375 4.125 -5.9375 4.125 -9 5 C-9.99 5.495 -9.99 5.495 -11 6 C-11.66 5.34 -12.32 4.68 -13 4 C-11.40233897 3.13372601 -9.79660056 2.28233535 -8.1875 1.4375 C-7.29417969 0.96183594 -6.40085937 0.48617188 -5.48046875 -0.00390625 C-3 -1 -3 -1 0 0 Z " fill="#9365D3" transform="translate(435,380)"/>
<path d="M0 0 C0 0.66 0 1.32 0 2 C-1.28650706 2.69710731 -2.57940665 3.38242876 -3.875 4.0625 C-4.95394531 4.63677734 -4.95394531 4.63677734 -6.0546875 5.22265625 C-6.69664062 5.47917969 -7.33859375 5.73570312 -8 6 C-8.66 5.67 -9.32 5.34 -10 5 C-6.99385784 1.69324363 -4.54252119 0 0 0 Z " fill="#8854CE" transform="translate(502,375)"/>
<path d="M0 0 C0.33 0 0.66 0 1 0 C0.48594831 4.96916636 -0.23384882 9.29026351 -2 14 C-2.33 14 -2.66 14 -3 14 C-3.125 7.375 -3.125 7.375 -2 4 C-1.34 4 -0.68 4 0 4 C0 2.68 0 1.36 0 0 Z " fill="#8C60CD" transform="translate(568,283)"/>
<path d="M0 0 C1.32 0.33 2.64 0.66 4 1 C1.36 2.98 -1.28 4.96 -4 7 C-4.66 6.67 -5.32 6.34 -6 6 C-4 4 -2 2 0 0 Z " fill="#614CCF" transform="translate(377,615)"/>
<path d="M0 0 C0.66 0.33 1.32 0.66 2 1 C0.06745228 3.0245738 -1.63158688 4.42105792 -4 6 C-6.1875 5.625 -6.1875 5.625 -8 5 C-6.71475739 4.13619741 -5.42157581 3.28419631 -4.125 2.4375 C-3.04605469 1.72400391 -3.04605469 1.72400391 -1.9453125 0.99609375 C-1.30335938 0.66738281 -0.66140625 0.33867188 0 0 Z " fill="#5379DA" transform="translate(720,609)"/>
<path d="M0 0 C5.28 0.33 10.56 0.66 16 1 C16 1.33 16 1.66 16 2 C11.38 2 6.76 2 2 2 C2 2.66 2 3.32 2 4 C1.34 4 0.68 4 0 4 C0 2.68 0 1.36 0 0 Z " fill="#5151DB" transform="translate(521,607)"/>
<path d="M0 0 C2.31 0.33 4.62 0.66 7 1 C7.33 2.32 7.66 3.64 8 5 C4.33776842 4.50510384 2.33006074 3.94323463 0 1 C0 0.67 0 0.34 0 0 Z " fill="#6955D9" transform="translate(658,439)"/>
<path d="M0 0 C0.66 0.33 1.32 0.66 2 1 C-0.35277269 3.72426311 -2.62496331 4.8141763 -6 6 C-6.66 5.34 -7.32 4.68 -8 4 C-6.71349294 3.30289269 -5.42059335 2.61757124 -4.125 1.9375 C-3.40570313 1.55464844 -2.68640625 1.17179687 -1.9453125 0.77734375 C-1.30335938 0.52082031 -0.66140625 0.26429688 0 0 Z " fill="#8C5BCE" transform="translate(443,374)"/>
<path d="M0 0 C0.33 0.99 0.66 1.98 1 3 C-0.21484375 4.82421875 -0.21484375 4.82421875 -1.9375 6.6875 C-2.50339844 7.31011719 -3.06929687 7.93273437 -3.65234375 8.57421875 C-4.09707031 9.04472656 -4.54179688 9.51523437 -5 10 C-5.33 9.01 -5.66 8.02 -6 7 C-4.78515625 5.17578125 -4.78515625 5.17578125 -3.0625 3.3125 C-2.49660156 2.68988281 -1.93070313 2.06726563 -1.34765625 1.42578125 C-0.90292969 0.95527344 -0.45820312 0.48476563 0 0 Z " fill="#834FC7" transform="translate(558,306)"/>
<path d="M0 0 C0 3 0 3 -1.3125 4.38671875 C-2.875 5.59114583 -4.4375 6.79557292 -6 8 C-5.42415568 5.61435923 -4.77772405 3.33317216 -4 1 C-1.9375 0.3125 -1.9375 0.3125 0 0 Z " fill="#5C6BD7" transform="translate(490,739)"/>
<path d="M0 0 C0.66 0.33 1.32 0.66 2 1 C-0.54456151 3.96865509 -3.48994665 5.3619751 -7 7 C-7 6.01 -7 5.02 -7 4 C-1.7265625 0.77734375 -1.7265625 0.77734375 0 0 Z " fill="#8350CC" transform="translate(206,639)"/>
<path d="M0 0 C0.8353125 0.37125 0.8353125 0.37125 1.6875 0.75 C-0.5625 2.8125 -0.5625 2.8125 -3.3125 4.75 C-5.625 4.5 -5.625 4.5 -7.3125 3.75 C-2.88173077 -0.31153846 -2.88173077 -0.31153846 0 0 Z " fill="#6460D6" transform="translate(576.3125,544.25)"/>
<path d="M0 0 C0.66 0.66 1.32 1.32 2 2 C-1.44615385 6.8 -1.44615385 6.8 -4.25 7.8125 C-5.11625 7.9053125 -5.11625 7.9053125 -6 8 C-5.67 6.35 -5.34 4.7 -5 3 C-4.34 3.33 -3.68 3.66 -3 4 C-2.01 2.68 -1.02 1.36 0 0 Z " fill="#9058DA" transform="translate(310,446)"/>
<path d="M0 0 C0.99 0.66 1.98 1.32 3 2 C1.71349294 2.69710731 0.42059335 3.38242876 -0.875 4.0625 C-1.95394531 4.63677734 -1.95394531 4.63677734 -3.0546875 5.22265625 C-3.69664062 5.47917969 -4.33859375 5.73570312 -5 6 C-5.66 5.67 -6.32 5.34 -7 5 C-4.87219421 2.65941363 -2.88437779 1.29299694 0 0 Z " fill="#8C59D3" transform="translate(395,425)"/>
<path d="M0 0 C0.33 0.66 0.66 1.32 1 2 C2.97888961 2.72693904 4.97954558 3.39816251 7 4 C4 6 4 6 1 6 C0.87625 5.360625 0.7525 4.72125 0.625 4.0625 C0.315625 3.0415625 0.315625 3.0415625 0 2 C-0.66 1.67 -1.32 1.34 -2 1 C-1.34 0.67 -0.68 0.34 0 0 Z " fill="#7665D7" transform="translate(673,416)"/>
<path d="M0 0 C0.99 0.66 1.98 1.32 3 2 C1.71349294 2.69710731 0.42059335 3.38242876 -0.875 4.0625 C-1.95394531 4.63677734 -1.95394531 4.63677734 -3.0546875 5.22265625 C-3.69664062 5.47917969 -4.33859375 5.73570312 -5 6 C-5.66 5.67 -6.32 5.34 -7 5 C-4.87219421 2.65941363 -2.88437779 1.29299694 0 0 Z " fill="#8C5DD1" transform="translate(414,416)"/>
<path d="M0 0 C6.75 0.75 6.75 0.75 9 3 C8.67 3.99 8.34 4.98 8 6 C6.66402348 5.19185349 5.331275 4.37836819 4 3.5625 C3.2575 3.11003906 2.515 2.65757812 1.75 2.19140625 C1.1725 1.79824219 0.595 1.40507812 0 1 C0 0.67 0 0.34 0 0 Z " fill="#9561D6" transform="translate(523,245)"/>
<path d="M0 0 C5.445 1.485 5.445 1.485 11 3 C11 3.33 11 3.66 11 4 C3.51234156 4.3682455 3.51234156 4.3682455 1 2.5625 C0 1 0 1 0 0 Z " fill="#8C61D4" transform="translate(206,732)"/>
<path d="M0 0 C0.99 0 1.98 0 3 0 C2.67 1.65 2.34 3.3 2 5 C0.68 5.33 -0.64 5.66 -2 6 C-1.34 4.02 -0.68 2.04 0 0 Z " fill="#5D53D5" transform="translate(715,480)"/>
<path d="M0 0 C0.33 0 0.66 0 1 0 C1.36644578 1.55966592 1.71760862 3.12292651 2.0625 4.6875 C2.25972656 5.55761719 2.45695312 6.42773438 2.66015625 7.32421875 C3.02032279 10.16001276 2.70909969 12.24789982 2 15 C1.67 15 1.34 15 1 15 C-0.32286246 10.03926578 -0.08893197 5.08888488 0 0 Z " fill="#A482D7" transform="translate(302,459)"/>
<path d="M0 0 C3.91211733 1.15585285 6.8745041 2.35534962 10 5 C3.49955237 4.38675022 3.49955237 4.38675022 1.0625 2.5 C0 1 0 1 0 0 Z " fill="#8560D3" transform="translate(579,372)"/>
<path d="M0 0 C0.66 0.33 1.32 0.66 2 1 C0.35 2.98 -1.3 4.96 -3 7 C-3.99 6.67 -4.98 6.34 -6 6 C-4.02 4.02 -2.04 2.04 0 0 Z " fill="#764ED1" transform="translate(272,745)"/>
<path d="M0 0 C0.33 0 0.66 0 1 0 C1 6.27 1 12.54 1 19 C0.67 19 0.34 19 0 19 C0 12.73 0 6.46 0 0 Z " fill="#5B8BE5" transform="translate(656,733)"/>
<path d="M0 0 C3.53586014 3.17320782 5.58578031 5.16743695 6 10 C2.46413986 6.82679218 0.41421969 4.83256305 0 0 Z " fill="#8150C2" transform="translate(158,735)"/>
<path d="M0 0 C0.66 0.33 1.32 0.66 2 1 C0.02579865 3.52259061 -0.96745642 3.9929808 -4.1875 4.6875 C-5.5796875 4.8421875 -5.5796875 4.8421875 -7 5 C-4.88437775 2.67281553 -2.94982021 1.14186589 0 0 Z " fill="#7061D8" transform="translate(386,610)"/>
<path d="M0 0 C0.66 0.33 1.32 0.66 2 1 C0.02579865 3.52259061 -0.96745642 3.9929808 -4.1875 4.6875 C-5.5796875 4.8421875 -5.5796875 4.8421875 -7 5 C-4.88437775 2.67281553 -2.94982021 1.14186589 0 0 Z " fill="#8F5FC8" transform="translate(325,431)"/>
<path d="M0 0 C0.33 0.99 0.66 1.98 1 3 C-1.64 2.67 -4.28 2.34 -7 2 C-7 1.34 -7 0.68 -7 0 C-4.3333581 -1.33332095 -2.83319697 -0.67102033 0 0 Z " fill="#925AD4" transform="translate(522,242)"/>
<path d="M0 0 C3.77545388 1.09068668 6.47043472 1.9083091 9 5 C3.48387097 4.38709677 3.48387097 4.38709677 1.125 2.5 C0 1 0 1 0 0 Z " fill="#8C5CCB" transform="translate(534,221)"/>
<path d="M0 0 C2.5 2.3125 2.5 2.3125 5 5 C5 5.99 5 6.98 5 8 C2.5 5.6875 2.5 5.6875 0 3 C0 2.01 0 1.02 0 0 Z " fill="#584FCD" transform="translate(353,732)"/>
<path d="M0 0 C0.8353125 0.37125 0.8353125 0.37125 1.6875 0.75 C-1.125 2.8125 -1.125 2.8125 -4.3125 4.75 C-5.3025 4.42 -6.2925 4.09 -7.3125 3.75 C-2.88173077 -0.31153846 -2.88173077 -0.31153846 0 0 Z " fill="#784ECB" transform="translate(255.3125,728.25)"/>
<path d="M0 0 C2.5 2.3125 2.5 2.3125 5 5 C5 5.99 5 6.98 5 8 C2.5 5.6875 2.5 5.6875 0 3 C0 2.01 0 1.02 0 0 Z " fill="#5A54CE" transform="translate(383,713)"/>
<path d="M0 0 C0.33 0 0.66 0 1 0 C0.67 2.64 0.34 5.28 0 8 C-0.66 8 -1.32 8 -2 8 C-2.33 8.66 -2.66 9.32 -3 10 C-2.49287967 6.28111761 -1.88391785 3.26545761 0 0 Z " fill="#5A4CCE" transform="translate(381,661)"/>
<path d="M0 0 C3.0916909 2.52956528 3.90931332 5.22454612 5 9 C2 8 2 8 0.8125 6.1875 C0 4 0 4 0 0 Z " fill="#6063D7" transform="translate(497,643)"/>
<path d="M0 0 C0.33 0.99 0.66 1.98 1 3 C-1.64 3.66 -4.28 4.32 -7 5 C-6.67 4.01 -6.34 3.02 -6 2 C-2.9375 0.8125 -2.9375 0.8125 0 0 Z " fill="#4F77DC" transform="translate(729,638)"/>
<path d="M0 0 C3.16115776 1.36983503 3.9927092 1.9890638 6 5 C5.625 7.1875 5.625 7.1875 5 9 C4.16094435 7.87926138 3.32892169 6.75325453 2.5 5.625 C2.0359375 4.99851562 1.571875 4.37203125 1.09375 3.7265625 C0 2 0 2 0 0 Z " fill="#4C49CF" transform="translate(491,636)"/>
<path d="M0 0 C2.31 0.66 4.62 1.32 7 2 C7 2.66 7 3.32 7 4 C7.66 4.33 8.32 4.66 9 5 C3.48387097 4.38709677 3.48387097 4.38709677 1.125 2.5 C0 1 0 1 0 0 Z " fill="#8C5BCF" transform="translate(319,491)"/>
<path d="M0 0 C0 0.66 0 1.32 0 2 C-3.44450737 4.29633824 -5.93812283 4.54016485 -10 5 C-8.28489314 1.56978628 -3.75681361 0 0 0 Z " fill="#8E5ECD" transform="translate(482,356)"/>
<path d="M0 0 C0.88492145 2.47778006 1.11637742 3.66056586 0.25 6.1875 C-1 8 -1 8 -4 9 C-2.94124926 5.59687262 -1.99097846 2.98646769 0 0 Z " fill="#8D5CCA" transform="translate(507,315)"/>
<path d="M0 0 C0.66 0.33 1.32 0.66 2 1 C2 1.99 2 2.98 2 4 C-0.31 4.66 -2.62 5.32 -5 6 C-3.86695008 2.60085025 -2.87481525 1.94745549 0 0 Z " fill="#915ED3" transform="translate(513,309)"/>
<path d="M0 0 C2.64 1.65 5.28 3.3 8 5 C6.68 5.33 5.36 5.66 4 6 C1.75 4.1875 1.75 4.1875 0 2 C0 1.34 0 0.68 0 0 Z " fill="#7B49C2" transform="translate(170,749)"/>
<path d="M0 0 C0.33 0.99 0.66 1.98 1 3 C-0.65 4.65 -2.3 6.3 -4 8 C-4 4.09161134 -2.49432124 2.88405893 0 0 Z " fill="#4959CF" transform="translate(494,732)"/>
<path d="M0 0 C1.32 0.33 2.64 0.66 4 1 C4.33 3.31 4.66 5.62 5 8 C2.74754119 5.31158141 1.11786042 3.35358125 0 0 Z " fill="#885ED2" transform="translate(263,654)"/>
<path d="M0 0 C0 3.69418201 -1.28179295 5.77836178 -3 9 C-3.33 9 -3.66 9 -4 9 C-4.25 6.75 -4.25 6.75 -4 4 C-2 1.6875 -2 1.6875 0 0 Z " fill="#804ABE" transform="translate(155,641)"/>
<path d="M0 0 C1.1875 1.625 1.1875 1.625 2 4 C0.625 7.25 0.625 7.25 -1 10 C-2.46726798 6.18510326 -1.43336419 3.70988378 0 0 Z " fill="#7574DD" transform="translate(553,568)"/>
<path d="M0 0 C2.35171131 0.59861742 4.6859378 1.26924352 7 2 C7.33 2.66 7.66 3.32 8 4 C5.69 3.67 3.38 3.34 1 3 C0.67 2.01 0.34 1.02 0 0 Z " fill="#5F51D4" transform="translate(685,452)"/>
<path d="M0 0 C0.33 0 0.66 0 1 0 C1 4.95 1 9.9 1 15 C0.67 15 0.34 15 0 15 C0 10.05 0 5.1 0 0 Z " fill="#5C8CE9" transform="translate(656,717)"/>
<path d="M0 0 C0.33 0 0.66 0 1 0 C1 3.96 1 7.92 1 12 C0.67 12 0.34 12 0 12 C0 8.04 0 4.08 0 0 Z " fill="#6287EC" transform="translate(656,632)"/>
<path d="M0 0 C0.33 0 0.66 0 1 0 C1 2.64 1 5.28 1 8 C0.67 8 0.34 8 0 8 C0 5.36 0 2.72 0 0 Z " fill="#5F8BEA" transform="translate(656,696)"/>
<path d="M0 0 C0.33 0 0.66 0 1 0 C1 2.64 1 5.28 1 8 C0.67 8 0.34 8 0 8 C0 5.36 0 2.72 0 0 Z " fill="#618AEC" transform="translate(656,664)"/>
<path d="M0 0 C0.33 0 0.66 0 1 0 C1 2.31 1 4.62 1 7 C0.67 7 0.34 7 0 7 C0 4.69 0 2.38 0 0 Z " fill="#5E8DEB" transform="translate(656,705)"/>
<path d="M0 0 C0.33 0 0.66 0 1 0 C1 2.31 1 4.62 1 7 C0.67 7 0.34 7 0 7 C0 4.69 0 2.38 0 0 Z " fill="#5E8BEC" transform="translate(656,688)"/>
<path d="M0 0 C0.33 0 0.66 0 1 0 C1 2.31 1 4.62 1 7 C0.67 7 0.34 7 0 7 C0 4.69 0 2.38 0 0 Z " fill="#5F8BEC" transform="translate(656,680)"/>
<path d="M0 0 C0.33 0 0.66 0 1 0 C1 2.31 1 4.62 1 7 C0.67 7 0.34 7 0 7 C0 4.69 0 2.38 0 0 Z " fill="#5E86EB" transform="translate(656,656)"/>
<path d="M0 0 C0.33 0 0.66 0 1 0 C1 2.31 1 4.62 1 7 C0.67 7 0.34 7 0 7 C0 4.69 0 2.38 0 0 Z " fill="#6587EB" transform="translate(656,616)"/>
<path d="M0 0 C0.99 0.33 1.98 0.66 3 1 C2.67 1.99 2.34 2.98 2 4 C1.34 3.67 0.68 3.34 0 3 C0 2.01 0 1.02 0 0 Z " fill="#9C69DD" transform="translate(332,463)"/>
<path d="M0 0 C0.33 0 0.66 0 1 0 C1 1.98 1 3.96 1 6 C0.67 6 0.34 6 0 6 C0 4.02 0 2.04 0 0 Z " fill="#5A88E0" transform="translate(656,753)"/>
<path d="M0 0 C0.33 0 0.66 0 1 0 C1 1.98 1 3.96 1 6 C0.67 6 0.34 6 0 6 C0 4.02 0 2.04 0 0 Z " fill="#5F8AEB" transform="translate(656,673)"/>
<path d="M0 0 C0.33 0 0.66 0 1 0 C1 1.65 1 3.3 1 5 C0.67 5 0.34 5 0 5 C0 3.35 0 1.7 0 0 Z " fill="#5C87D9" transform="translate(656,760)"/>
<path d="M0 0 C0.99 0.33 1.98 0.66 3 1 C2.01 1.33 1.02 1.66 0 2 C0 1.34 0 0.68 0 0 Z " fill="#767DEA" transform="translate(629,574)"/>
<path d="M0 0 C1.65 0 3.3 0 5 0 C5 0.33 5 0.66 5 1 C3.35 1 1.7 1 0 1 C0 0.67 0 0.34 0 0 Z " fill="#8A7AE5" transform="translate(603,468)"/>
<path d="M0 0 C1.65 0 3.3 0 5 0 C5 0.33 5 0.66 5 1 C3.35 1 1.7 1 0 1 C0 0.67 0 0.34 0 0 Z " fill="#957BE3" transform="translate(555,468)"/>
<path d="M0 0 C1.65 0 3.3 0 5 0 C5 0.33 5 0.66 5 1 C3.35 1 1.7 1 0 1 C0 0.67 0 0.34 0 0 Z " fill="#987CE1" transform="translate(529,468)"/>
<path d="M0 0 C1 4 1 4 1 4 Z " fill="#6485EB" transform="translate(656,624)"/>
<path d="" fill="#5F85DC" transform="translate(0,0)"/>
<path d="" fill="#5E8BE9" transform="translate(0,0)"/>
<path d="" fill="#6288EC" transform="translate(0,0)"/>
<path d="" fill="#6985EA" transform="translate(0,0)"/>
<path d="M0 0 C3 1 3 1 3 1 Z " fill="#717FE8" transform="translate(619,604)"/>
<path d="M0 0 C3 1 3 1 3 1 Z " fill="#777BE8" transform="translate(539,604)"/>
<path d="M0 0 C3 1 3 1 3 1 Z " fill="#967CE4" transform="translate(543,468)"/>
<path d="M0 0 C3 1 3 1 3 1 Z " fill="#906EE0" transform="translate(576,403)"/>
<path d="M0 0 C2 1 2 1 2 1 Z " fill="#6A74D4" transform="translate(438,771)"/>
<path d="M0 0 C2 1 2 1 2 1 Z " fill="#6B72D5" transform="translate(408,771)"/>
<path d="M0 0 C2 1 2 1 2 1 Z " fill="#8C67CE" transform="translate(222,771)"/>
<path d="M0 0 C2 1 2 1 2 1 Z " fill="#8E68CD" transform="translate(214,771)"/>
<path d="" fill="#9168CA" transform="translate(0,0)"/>
<path d="" fill="#6F7AE8" transform="translate(0,0)"/>
<path d="" fill="#618DEB" transform="translate(0,0)"/>
<path d="" fill="#757AEA" transform="translate(0,0)"/>
<path d="" fill="#926FDE" transform="translate(0,0)"/>
<path d="" fill="#6886EE" transform="translate(0,0)"/>
<path d="" fill="#936BDC" transform="translate(0,0)"/>
<path d="" fill="#6088EE" transform="translate(0,0)"/>
<path d="" fill="#5F85EC" transform="translate(0,0)"/>
<path d="M0 0 C2 1 2 1 2 1 Z " fill="#966DDE" transform="translate(235,639)"/>
<path d="" fill="#6286EC" transform="translate(0,0)"/>
<path d="" fill="#648DEC" transform="translate(0,0)"/>
<path d="" fill="#6584EB" transform="translate(0,0)"/>
<path d="M0 0 C2 1 2 1 2 1 Z " fill="#698BE7" transform="translate(681,604)"/>
<path d="M0 0 C2 1 2 1 2 1 Z " fill="#6F7CEA" transform="translate(596,604)"/>
<path d="M0 0 C2 1 2 1 2 1 Z " fill="#7476EA" transform="translate(604,575)"/>
<path d="M0 0 C2 1 2 1 2 1 Z " fill="#7379E9" transform="translate(612,572)"/>
<path d="" fill="#7E7FE4" transform="translate(0,0)"/>
<path d="" fill="#5F7CD3" transform="translate(0,0)"/>
<path d="" fill="#6783D8" transform="translate(0,0)"/>
<path d="M0 0 C2 1 2 1 2 1 Z " fill="#797AE1" transform="translate(629,536)"/>
<path d="M0 0 C2 1 2 1 2 1 Z " fill="#7C75E8" transform="translate(684,468)"/>
<path d="M0 0 C2 1 2 1 2 1 Z " fill="#887BE6" transform="translate(620,468)"/>
<path d="M0 0 C2 1 2 1 2 1 Z " fill="#8B7BE5" transform="translate(612,468)"/>
<path d="M0 0 C2 1 2 1 2 1 Z " fill="#8E7DE6" transform="translate(596,468)"/>
<path d="M0 0 C2 1 2 1 2 1 Z " fill="#957BE4" transform="translate(548,468)"/>
<path d="M0 0 C2 1 2 1 2 1 Z " fill="#987BE3" transform="translate(540,468)"/>
<path d="M0 0 C2 1 2 1 2 1 Z " fill="#987AE3" transform="translate(524,468)"/>
<path d="M0 0 C2 1 2 1 2 1 Z " fill="#997BE2" transform="translate(516,468)"/>
<path d="M0 0 C2 1 2 1 2 1 Z " fill="#9B7CE4" transform="translate(508,468)"/>
<path d="M0 0 C2 1 2 1 2 1 Z " fill="#9C7AE2" transform="translate(492,468)"/>
<path d="M0 0 C2 1 2 1 2 1 Z " fill="#9B79E1" transform="translate(489,468)"/>
<path d="M0 0 C2 1 2 1 2 1 Z " fill="#9D7BE1" transform="translate(484,468)"/>
<path d="M0 0 C2 1 2 1 2 1 Z " fill="#9D78E0" transform="translate(465,468)"/>
<path d="M0 0 C2 1 2 1 2 1 Z " fill="#9E79E2" transform="translate(460,468)"/>
<path d="M0 0 C2 1 2 1 2 1 Z " fill="#9E77E1" transform="translate(428,468)"/>
<path d="M0 0 C2 1 2 1 2 1 Z " fill="#A076E2" transform="translate(417,468)"/>
<path d="M0 0 C2 1 2 1 2 1 Z " fill="#817AEB" transform="translate(688,467)"/>
<path d="" fill="#8D64C1" transform="translate(0,0)"/>
<path d="M0 0 C2 1 2 1 2 1 Z " fill="#9065CB" transform="translate(329,427)"/>
<path d="M0 0 C2 1 2 1 2 1 Z " fill="#9162CA" transform="translate(344,418)"/>
<path d="M0 0 C2 1 2 1 2 1 Z " fill="#916DE0" transform="translate(579,404)"/>
<path d="" fill="#916BD9" transform="translate(0,0)"/>
<path d="" fill="#8D61C9" transform="translate(0,0)"/>
<path d="M0 0 C2 1 2 1 2 1 Z " fill="#9D6DDE" transform="translate(523,247)"/>
<path d="M0 0 C2 1 2 1 2 1 Z " fill="#9C69DF" transform="translate(520,246)"/>
<path d="M0 0 C2 1 2 1 2 1 Z " fill="#9E6ADB" transform="translate(507,244)"/>
<path d="M0 0 C2 1 2 1 2 1 Z " fill="#8D62C6" transform="translate(525,216)"/>
<path d="" fill="#6972D6" transform="translate(0,0)"/>
<path d="" fill="#6C73D8" transform="translate(0,0)"/>
<path d="" fill="#8C67CD" transform="translate(0,0)"/>
<path d="" fill="#5986CD" transform="translate(0,0)"/>
<path d="" fill="#5C7AD1" transform="translate(0,0)"/>
<path d="" fill="#6A6FD5" transform="translate(0,0)"/>
<path d="" fill="#8467CF" transform="translate(0,0)"/>
<path d="" fill="#8D64CC" transform="translate(0,0)"/>
<path d="" fill="#6E70D5" transform="translate(0,0)"/>
<path d="" fill="#8C62CF" transform="translate(0,0)"/>
<path d="" fill="#5B89D1" transform="translate(0,0)"/>
<path d="" fill="#7171D7" transform="translate(0,0)"/>
<path d="" fill="#8E65CE" transform="translate(0,0)"/>
<path d="" fill="#8E63CF" transform="translate(0,0)"/>
<path d="" fill="#5B8DDA" transform="translate(0,0)"/>
<path d="" fill="#8A68D8" transform="translate(0,0)"/>
<path d="" fill="#6B7BDE" transform="translate(0,0)"/>
<path d="" fill="#7372D8" transform="translate(0,0)"/>
<path d="" fill="#7471D5" transform="translate(0,0)"/>
<path d="" fill="#8C67D7" transform="translate(0,0)"/>
<path d="" fill="#6876DE" transform="translate(0,0)"/>
<path d="" fill="#736FD9" transform="translate(0,0)"/>
<path d="" fill="#6A7BDF" transform="translate(0,0)"/>
<path d="" fill="#726FD4" transform="translate(0,0)"/>
<path d="" fill="#8C66C7" transform="translate(0,0)"/>
<path d="" fill="#6389E7" transform="translate(0,0)"/>
<path d="" fill="#5D93E4" transform="translate(0,0)"/>
<path d="" fill="#6384E5" transform="translate(0,0)"/>
<path d="" fill="#687EE2" transform="translate(0,0)"/>
<path d="" fill="#796FDD" transform="translate(0,0)"/>
<path d="" fill="#8F65CD" transform="translate(0,0)"/>
<path d="" fill="#5D94E5" transform="translate(0,0)"/>
<path d="" fill="#6686E8" transform="translate(0,0)"/>
<path d="" fill="#966CDD" transform="translate(0,0)"/>
<path d="" fill="#9065CD" transform="translate(0,0)"/>
<path d="" fill="#9470DE" transform="translate(0,0)"/>
<path d="" fill="#966EDF" transform="translate(0,0)"/>
<path d="" fill="#717BEA" transform="translate(0,0)"/>
<path d="" fill="#747DE8" transform="translate(0,0)"/>
<path d="" fill="#9370E1" transform="translate(0,0)"/>
<path d="" fill="#658AE9" transform="translate(0,0)"/>
<path d="" fill="#6583E7" transform="translate(0,0)"/>
<path d="" fill="#6D7FE5" transform="translate(0,0)"/>
<path d="" fill="#7367D8" transform="translate(0,0)"/>
<path d="" fill="#5C95EA" transform="translate(0,0)"/>
<path d="" fill="#786AD8" transform="translate(0,0)"/>
<path d="" fill="#677BE3" transform="translate(0,0)"/>
<path d="" fill="#7C70DD" transform="translate(0,0)"/>
<path d="" fill="#9065C9" transform="translate(0,0)"/>
<path d="" fill="#7C72DB" transform="translate(0,0)"/>
<path d="" fill="#9574E2" transform="translate(0,0)"/>
<path d="" fill="#697BE4" transform="translate(0,0)"/>
<path d="" fill="#9270E1" transform="translate(0,0)"/>
<path d="" fill="#8E66C8" transform="translate(0,0)"/>
<path d="" fill="#668AEA" transform="translate(0,0)"/>
<path d="" fill="#5E91E9" transform="translate(0,0)"/>
<path d="" fill="#5E95E8" transform="translate(0,0)"/>
<path d="" fill="#6F79E6" transform="translate(0,0)"/>
<path d="" fill="#687DE4" transform="translate(0,0)"/>
<path d="" fill="#9064CA" transform="translate(0,0)"/>
<path d="" fill="#7B6DE1" transform="translate(0,0)"/>
<path d="" fill="#9271E0" transform="translate(0,0)"/>
<path d="" fill="#717EEC" transform="translate(0,0)"/>
<path d="" fill="#916EE2" transform="translate(0,0)"/>
<path d="" fill="#5C94EA" transform="translate(0,0)"/>
<path d="" fill="#727FE9" transform="translate(0,0)"/>
<path d="" fill="#7475E9" transform="translate(0,0)"/>
<path d="" fill="#6781EB" transform="translate(0,0)"/>
<path d="" fill="#7879E9" transform="translate(0,0)"/>
<path d="" fill="#7C6FE0" transform="translate(0,0)"/>
<path d="" fill="#9669DB" transform="translate(0,0)"/>
<path d="" fill="#737CEB" transform="translate(0,0)"/>
<path d="" fill="#966DDF" transform="translate(0,0)"/>
<path d="" fill="#5C95EB" transform="translate(0,0)"/>
<path d="" fill="#946AC9" transform="translate(0,0)"/>
<path d="" fill="#956ADD" transform="translate(0,0)"/>
<path d="" fill="#6787EE" transform="translate(0,0)"/>
<path d="" fill="#5D93EC" transform="translate(0,0)"/>
<path d="" fill="#6A81EB" transform="translate(0,0)"/>
<path d="" fill="#996BDE" transform="translate(0,0)"/>
<path d="" fill="#8474E6" transform="translate(0,0)"/>
<path d="" fill="#9068C6" transform="translate(0,0)"/>
<path d="" fill="#8475E6" transform="translate(0,0)"/>
<path d="" fill="#757AEB" transform="translate(0,0)"/>
<path d="" fill="#9572E2" transform="translate(0,0)"/>
<path d="" fill="#5F93ED" transform="translate(0,0)"/>
<path d="" fill="#717DEB" transform="translate(0,0)"/>
<path d="" fill="#5E8BE8" transform="translate(0,0)"/>
<path d="" fill="#757CEA" transform="translate(0,0)"/>
<path d="" fill="#8273E4" transform="translate(0,0)"/>
<path d="" fill="#6A7DED" transform="translate(0,0)"/>
<path d="" fill="#9669D7" transform="translate(0,0)"/>
<path d="" fill="#936FDF" transform="translate(0,0)"/>
<path d="" fill="#976CDE" transform="translate(0,0)"/>
<path d="" fill="#5D93EE" transform="translate(0,0)"/>
<path d="" fill="#956DDE" transform="translate(0,0)"/>
<path d="" fill="#9167C6" transform="translate(0,0)"/>
<path d="" fill="#727AE8" transform="translate(0,0)"/>
<path d="" fill="#6A84EF" transform="translate(0,0)"/>
<path d="" fill="#747BE6" transform="translate(0,0)"/>
<path d="" fill="#9168DA" transform="translate(0,0)"/>
<path d="" fill="#916CDB" transform="translate(0,0)"/>
<path d="" fill="#5D93F0" transform="translate(0,0)"/>
<path d="" fill="#767BE9" transform="translate(0,0)"/>
<path d="" fill="#777BEA" transform="translate(0,0)"/>
<path d="" fill="#966EE1" transform="translate(0,0)"/>
<path d="" fill="#5E92ED" transform="translate(0,0)"/>
<path d="" fill="#966BDE" transform="translate(0,0)"/>
<path d="" fill="#956CDF" transform="translate(0,0)"/>
<path d="" fill="#7775E7" transform="translate(0,0)"/>
<path d="" fill="#8473E4" transform="translate(0,0)"/>
<path d="" fill="#6091EE" transform="translate(0,0)"/>
<path d="" fill="#8570E2" transform="translate(0,0)"/>
<path d="" fill="#7978EB" transform="translate(0,0)"/>
<path d="" fill="#6192EE" transform="translate(0,0)"/>
<path d="" fill="#9067C5" transform="translate(0,0)"/>
<path d="" fill="#797AE5" transform="translate(0,0)"/>
<path d="" fill="#6293EC" transform="translate(0,0)"/>
<path d="" fill="#8675E5" transform="translate(0,0)"/>
<path d="" fill="#9064C2" transform="translate(0,0)"/>
<path d="" fill="#6591EE" transform="translate(0,0)"/>
<path d="" fill="#6B8DE9" transform="translate(0,0)"/>
<path d="" fill="#8573E3" transform="translate(0,0)"/>
<path d="" fill="#668CE9" transform="translate(0,0)"/>
<path d="" fill="#797DE1" transform="translate(0,0)"/>
<path d="" fill="#608EE4" transform="translate(0,0)"/>
<path d="" fill="#6391E9" transform="translate(0,0)"/>
<path d="" fill="#628FE9" transform="translate(0,0)"/>
<path d="" fill="#6B8DE8" transform="translate(0,0)"/>
<path d="" fill="#6A8DEB" transform="translate(0,0)"/>
<path d="" fill="#7280EB" transform="translate(0,0)"/>
<path d="" fill="#737DE9" transform="translate(0,0)"/>
<path d="" fill="#737DEB" transform="translate(0,0)"/>
<path d="" fill="#727AED" transform="translate(0,0)"/>
<path d="" fill="#7A7CE8" transform="translate(0,0)"/>
<path d="" fill="#777BE5" transform="translate(0,0)"/>
<path d="" fill="#7F7CE6" transform="translate(0,0)"/>
<path d="" fill="#6A8FEB" transform="translate(0,0)"/>
<path d="" fill="#6891E7" transform="translate(0,0)"/>
<path d="" fill="#827CE5" transform="translate(0,0)"/>
<path d="" fill="#7E7AE4" transform="translate(0,0)"/>
<path d="" fill="#807BE4" transform="translate(0,0)"/>
<path d="" fill="#827FE6" transform="translate(0,0)"/>
<path d="" fill="#6590EA" transform="translate(0,0)"/>
<path d="" fill="#6590E9" transform="translate(0,0)"/>
<path d="" fill="#737BEE" transform="translate(0,0)"/>
<path d="" fill="#648CE6" transform="translate(0,0)"/>
<path d="" fill="#7178EA" transform="translate(0,0)"/>
<path d="" fill="#668BE7" transform="translate(0,0)"/>
<path d="" fill="#7476EA" transform="translate(0,0)"/>
<path d="" fill="#767CEB" transform="translate(0,0)"/>
<path d="" fill="#698DE6" transform="translate(0,0)"/>
<path d="" fill="#6A8BE5" transform="translate(0,0)"/>
<path d="" fill="#787DE5" transform="translate(0,0)"/>
<path d="" fill="#607FD3" transform="translate(0,0)"/>
<path d="" fill="#7F7EE6" transform="translate(0,0)"/>
<path d="" fill="#6885DA" transform="translate(0,0)"/>
<path d="" fill="#7A78E4" transform="translate(0,0)"/>
<path d="" fill="#647FD4" transform="translate(0,0)"/>
<path d="" fill="#7978E7" transform="translate(0,0)"/>
<path d="" fill="#6480D4" transform="translate(0,0)"/>
<path d="" fill="#7C79E7" transform="translate(0,0)"/>
<path d="" fill="#9672D2" transform="translate(0,0)"/>
<path d="" fill="#9168C3" transform="translate(0,0)"/>
<path d="" fill="#7A79E0" transform="translate(0,0)"/>
<path d="" fill="#9667D0" transform="translate(0,0)"/>
<path d="" fill="#936ACF" transform="translate(0,0)"/>
<path d="" fill="#936ACE" transform="translate(0,0)"/>
<path d="" fill="#7F78E8" transform="translate(0,0)"/>
<path d="" fill="#8379E7" transform="translate(0,0)"/>
<path d="" fill="#847AE7" transform="translate(0,0)"/>
<path d="" fill="#837AE6" transform="translate(0,0)"/>
<path d="" fill="#867BE6" transform="translate(0,0)"/>
<path d="" fill="#887AE7" transform="translate(0,0)"/>
<path d="" fill="#8B7DE6" transform="translate(0,0)"/>
<path d="" fill="#8B7CE6" transform="translate(0,0)"/>
<path d="" fill="#8F7BE6" transform="translate(0,0)"/>
<path d="" fill="#917CE6" transform="translate(0,0)"/>
<path d="" fill="#947DE4" transform="translate(0,0)"/>
<path d="" fill="#927CE5" transform="translate(0,0)"/>
<path d="" fill="#947BE4" transform="translate(0,0)"/>
<path d="" fill="#927EE6" transform="translate(0,0)"/>
<path d="" fill="#967BE4" transform="translate(0,0)"/>
<path d="" fill="#997CE2" transform="translate(0,0)"/>
<path d="" fill="#987CE3" transform="translate(0,0)"/>
<path d="" fill="#987BE3" transform="translate(0,0)"/>
<path d="" fill="#9A7CE2" transform="translate(0,0)"/>
<path d="" fill="#9A7CE2" transform="translate(0,0)"/>
<path d="" fill="#9B7DE3" transform="translate(0,0)"/>
<path d="" fill="#9D77E1" transform="translate(0,0)"/>
<path d="" fill="#9E7AE3" transform="translate(0,0)"/>
<path d="" fill="#9F78E3" transform="translate(0,0)"/>
<path d="" fill="#9F78E2" transform="translate(0,0)"/>
<path d="" fill="#9E77E2" transform="translate(0,0)"/>
<path d="" fill="#A277E3" transform="translate(0,0)"/>
<path d="" fill="#A077E2" transform="translate(0,0)"/>
<path d="" fill="#9F75E2" transform="translate(0,0)"/>
<path d="" fill="#9F76E1" transform="translate(0,0)"/>
<path d="" fill="#9F76E1" transform="translate(0,0)"/>
<path d="" fill="#A174E3" transform="translate(0,0)"/>
<path d="" fill="#A075E3" transform="translate(0,0)"/>
<path d="" fill="#9F72E2" transform="translate(0,0)"/>
<path d="" fill="#9E71E0" transform="translate(0,0)"/>
<path d="" fill="#9F71E1" transform="translate(0,0)"/>
<path d="" fill="#9F6FE1" transform="translate(0,0)"/>
<path d="" fill="#9E6FE0" transform="translate(0,0)"/>
<path d="" fill="#9F6EDF" transform="translate(0,0)"/>
<path d="" fill="#996BDF" transform="translate(0,0)"/>
<path d="" fill="#9468CC" transform="translate(0,0)"/>
<path d="" fill="#7B74E8" transform="translate(0,0)"/>
<path d="" fill="#7E77E8" transform="translate(0,0)"/>
<path d="" fill="#7B72E4" transform="translate(0,0)"/>
<path d="" fill="#8174EB" transform="translate(0,0)"/>
<path d="" fill="#7F74E7" transform="translate(0,0)"/>
<path d="" fill="#8173EA" transform="translate(0,0)"/>
<path d="" fill="#8475E5" transform="translate(0,0)"/>
<path d="" fill="#9367C7" transform="translate(0,0)"/>
<path d="" fill="#8071E4" transform="translate(0,0)"/>
<path d="" fill="#806FE2" transform="translate(0,0)"/>
<path d="" fill="#8675E3" transform="translate(0,0)"/>
<path d="" fill="#756DD6" transform="translate(0,0)"/>
<path d="" fill="#8C61C4" transform="translate(0,0)"/>
<path d="" fill="#8674E3" transform="translate(0,0)"/>
<path d="" fill="#8A75E3" transform="translate(0,0)"/>
<path d="" fill="#9A6BE1" transform="translate(0,0)"/>
<path d="" fill="#8974E4" transform="translate(0,0)"/>
<path d="" fill="#9063C8" transform="translate(0,0)"/>
<path d="" fill="#9468CA" transform="translate(0,0)"/>
<path d="" fill="#9164C8" transform="translate(0,0)"/>
<path d="" fill="#8871E5" transform="translate(0,0)"/>
<path d="" fill="#9770D9" transform="translate(0,0)"/>
<path d="" fill="#8B72E4" transform="translate(0,0)"/>
<path d="" fill="#9162CD" transform="translate(0,0)"/>
<path d="" fill="#8D72E5" transform="translate(0,0)"/>
<path d="" fill="#786BD5" transform="translate(0,0)"/>
<path d="" fill="#9061C9" transform="translate(0,0)"/>
<path d="" fill="#8B70DC" transform="translate(0,0)"/>
<path d="" fill="#9071E3" transform="translate(0,0)"/>
<path d="" fill="#9167CE" transform="translate(0,0)"/>
<path d="" fill="#9262CD" transform="translate(0,0)"/>
<path d="" fill="#9569DF" transform="translate(0,0)"/>
<path d="" fill="#9C6CDF" transform="translate(0,0)"/>
<path d="" fill="#9568D0" transform="translate(0,0)"/>
<path d="" fill="#8C6CDA" transform="translate(0,0)"/>
<path d="" fill="#956EE2" transform="translate(0,0)"/>
<path d="" fill="#956BDF" transform="translate(0,0)"/>
<path d="" fill="#8F68DF" transform="translate(0,0)"/>
<path d="" fill="#8D6AD9" transform="translate(0,0)"/>
<path d="" fill="#9569D3" transform="translate(0,0)"/>
<path d="" fill="#8B69D5" transform="translate(0,0)"/>
<path d="" fill="#916AD8" transform="translate(0,0)"/>
<path d="" fill="#936DD9" transform="translate(0,0)"/>
<path d="" fill="#9668D6" transform="translate(0,0)"/>
<path d="" fill="#9969D7" transform="translate(0,0)"/>
<path d="" fill="#986FDB" transform="translate(0,0)"/>
<path d="" fill="#996AD4" transform="translate(0,0)"/>
<path d="" fill="#9B69DD" transform="translate(0,0)"/>
<path d="" fill="#9867DC" transform="translate(0,0)"/>
<path d="" fill="#9D6DDC" transform="translate(0,0)"/>
<path d="" fill="#996BD9" transform="translate(0,0)"/>
<path d="" fill="#9C6ED5" transform="translate(0,0)"/>
<path d="" fill="#9C6FD8" transform="translate(0,0)"/>
<path d="" fill="#9C70DF" transform="translate(0,0)"/>
<path d="" fill="#9F70DE" transform="translate(0,0)"/>
<path d="" fill="#9161CD" transform="translate(0,0)"/>
<path d="" fill="#9F6EDB" transform="translate(0,0)"/>
<path d="" fill="#9F72DA" transform="translate(0,0)"/>
<path d="" fill="#9C6DDB" transform="translate(0,0)"/>
<path d="" fill="#9F6DDC" transform="translate(0,0)"/>
<path d="" fill="#9768D0" transform="translate(0,0)"/>
<path d="" fill="#9366CE" transform="translate(0,0)"/>
<path d="" fill="#9366CE" transform="translate(0,0)"/>
<path d="" fill="#9F70DE" transform="translate(0,0)"/>
<path d="" fill="#9061C9" transform="translate(0,0)"/>
<path d="" fill="#A26FDE" transform="translate(0,0)"/>
<path d="" fill="#9D6EDD" transform="translate(0,0)"/>
<path d="" fill="#9F6EDB" transform="translate(0,0)"/>
<path d="" fill="#A06DDD" transform="translate(0,0)"/>
<path d="" fill="#A16DDD" transform="translate(0,0)"/>
<path d="" fill="#9065CA" transform="translate(0,0)"/>
<path d="" fill="#9164C3" transform="translate(0,0)"/>
<path d="" fill="#9064C4" transform="translate(0,0)"/>
<path d="" fill="#9263C3" transform="translate(0,0)"/>
<path d="" fill="#8F61C3" transform="translate(0,0)"/>
<path d="" fill="#8E60C2" transform="translate(0,0)"/>
</svg>
